<?xml version="1.0" encoding="UTF-8" standalone="no"?>
<svg
   xmlns:dc="http://purl.org/dc/elements/1.1/"
   xmlns:cc="http://creativecommons.org/ns#"
   xmlns:rdf="http://www.w3.org/1999/02/22-rdf-syntax-ns#"
   xmlns:svg="http://www.w3.org/2000/svg"
   xmlns="http://www.w3.org/2000/svg"
   xmlns:sodipodi="http://sodipodi.sourceforge.net/DTD/sodipodi-0.dtd"
   xmlns:inkscape="http://www.inkscape.org/namespaces/inkscape"
   viewBox="0 0 4066.6667 2666.6667"
   height="2666.6667"
   width="4066.6667"
   xml:space="preserve"
   id="svg2"
   version="1.1"
   sodipodi:docname="6547.svg"
   inkscape:version="1.0 (4035a4fb49, 2020-05-01)"><sodipodi:namedview
     inkscape:document-rotation="0"
     pagecolor="#ffffff"
     bordercolor="#666666"
     borderopacity="1"
     objecttolerance="10"
     gridtolerance="10"
     guidetolerance="10"
     inkscape:pageopacity="0"
     inkscape:pageshadow="2"
     inkscape:window-width="1920"
     inkscape:window-height="1051"
     id="namedview382"
     showgrid="false"
     inkscape:zoom="0.23334523"
     inkscape:cx="2045.3747"
     inkscape:cy="1343.8542"
     inkscape:window-x="-9"
     inkscape:window-y="-9"
     inkscape:window-maximized="1"
     inkscape:current-layer="g12" /><metadata
     id="metadata8"><rdf:RDF><cc:Work
         rdf:about=""><dc:format>image/svg+xml</dc:format><dc:type
           rdf:resource="http://purl.org/dc/dcmitype/StillImage" /></cc:Work></rdf:RDF></metadata><defs
     id="defs6" /><g
     transform="matrix(1.3333333,0,0,-1.3333333,0,2666.6667)"
     id="g10"><g
       transform="scale(0.1)"
       id="g12"><g
         transform="scale(1.77664)"
         id="g22"><path
           id="path24"
           style="fill:#95a6db;fill-opacity:1;fill-rule:nonzero;stroke:none"
           d="M 16232.5,825.263 H 794.572 c -37.307,0 -67.556,30.228 -67.556,67.543 v 0 c 0,37.318 30.249,67.543 67.556,67.543 H 16232.5 c 37.3,0 67.5,-30.225 67.5,-67.543 v 0 c 0,-37.315 -30.2,-67.543 -67.5,-67.543" /></g><g
         transform="scale(1.78058)"
         id="g26"><path
           id="path28"
           style="fill:#95a6db;fill-opacity:1;fill-rule:nonzero;stroke:none"
           d="m 16177.3,3215.81 c 0,0 122.7,-133.72 53.7,-441.15 -70.2,-313.21 2.6,-502.36 2.6,-502.36 l -100.2,-137.66 c 0,0 -95.9,291.2 -27.4,540.22 86.1,311.64 71.3,540.95 71.3,540.95" /></g><g
         transform="scale(1.8161)"
         id="g30"><path
           id="path32"
           style="fill:#95a6db;fill-opacity:1;fill-rule:nonzero;stroke:none"
           d="m 16247.2,3156.71 c 0,0 52.8,-119.98 -55,-330.82 -110.2,-214.8 -100.7,-366 -100.7,-366 l -83.2,-107.1 c 0,0 -14.1,255.11 81.7,423.66 119.8,210.83 157.2,380.26 157.2,380.26" /></g><g
         transform="scale(1.75888)"
         id="g34"><path
           id="path36"
           style="fill:#95a6db;fill-opacity:1;fill-rule:nonzero;stroke:none"
           d="m 16171.3,2891.9 c 0,0 -96.6,-108.48 -92.1,-452.67 3.7,-280.52 97.9,-405.15 99.1,-577.3 l 121.7,216.61 c -17.7,118.09 -110.4,176.48 -126,430.67 -14.7,238 -2.7,382.69 -2.7,382.69" /></g><g
         transform="scale(1.71674)"
         id="g38"><path
           id="path40"
           style="fill:#95a6db;fill-opacity:1;fill-rule:nonzero;stroke:none"
           d="m 15744.5,1696.59 c 0,0 -20.2,-147.95 180.2,-437.75 163.3,-236.49 307.7,-238.59 348.3,-292.412 l 27,145.682 c -97,84.93 -176.1,52.95 -334.7,260.2 -148.5,194.56 -220.8,324.28 -220.8,324.28" /></g><g
         transform="scale(1.73892)"
         id="g42"><path
           id="path44"
           style="fill:#95a6db;fill-opacity:1;fill-rule:nonzero;stroke:none"
           d="m 16132.7,2653.31 c 0,0 -24.8,-252.51 -7.7,-405.59 24,-217.72 134.5,-310.89 175,-531.54 l -82.9,-169.53 c 0,0 -157.5,203.92 -176.3,473.74 -31.7,452.81 91.9,632.92 91.9,632.92" /></g><g
         transform="scale(1.72704)"
         id="g46"><path
           id="path48"
           style="fill:#95a6db;fill-opacity:1;fill-rule:nonzero;stroke:none"
           d="m 15863.1,2464.4 c 56.2,-131.85 92.8,-271.22 108.8,-413.66 45.1,-432.01 328.1,-683.48 328.1,-683.48 l -53.7,-117.84 c 0,0 -323.5,156.63 -351.2,520.55 -28.8,384.53 -32,694.43 -32,694.43" /></g><g
         transform="scale(1.85948)"
         id="g50"><path
           id="path52"
           style="fill:#95a6db;fill-opacity:1;fill-rule:nonzero;stroke:none"
           d="m 15416.3,1936.51 c 0,0 84.2,54.31 477.6,95.88 252.1,26.57 158.6,102.4 406.1,87.01 -172.1,-57 -201.7,-199.46 -434.7,-237.8 -186.4,-30.55 -370.1,-75.62 -549.5,-134.88 l 100.5,189.79" /></g><g
         transform="scale(1.84986)"
         id="g54"><path
           id="path56"
           style="fill:#95a6db;fill-opacity:1;fill-rule:nonzero;stroke:none"
           d="m 16300,1872.9 c 0,0 -105.9,-225.42 -452.2,-281.53 -213,-35.04 -418.8,-104.88 -609.2,-206.72 l 62.2,195.85 c 0,0 116.9,135.74 482.6,159.47 251.2,16.38 516.6,132.93 516.6,132.93" /></g><g
         transform="scale(1.8355)"
         id="g58"><path
           id="path60"
           style="fill:#95a6db;fill-opacity:1;fill-rule:nonzero;stroke:none"
           d="m 16300,1513 c 0,0 -106.8,-227.14 -455.7,-283.63 -214.7,-35.36 -422.2,-105.75 -614,-208.39 l 62.7,197.33 c 0,0 117.8,136.86 486.3,160.77 253.2,16.51 520.7,133.92 520.7,133.92" /></g><g
         transform="scale(1.86045)"
         id="g62"><path
           id="path64"
           style="fill:#95a6db;fill-opacity:1;fill-rule:nonzero;stroke:none"
           d="m 16300,2538.58 c 0,0 -84.9,-123.42 -303.9,-150.45 -222,-27.36 -370.1,-111.54 -370.1,-111.54 l 45.9,78.1 c 0,0 73.4,85.31 303.2,100.3 158.1,10.43 324.9,83.59 324.9,83.59" /></g><g
         transform="scale(1.86193)"
         id="g66"><path
           id="path68"
           style="fill:#95a6db;fill-opacity:1;fill-rule:nonzero;stroke:none"
           d="m 15546.5,2148.8 c 0,0 162.6,56.23 412.5,92.53 157.5,23.37 341,164.89 341,164.89 0,0 -106.1,-258.71 -345.1,-279.17 -274.1,-23.42 -527.3,-120.9 -527.3,-120.9 l 118.9,142.65" /></g><g
         transform="scale(1.86358)"
         id="g70"><path
           id="path72"
           style="fill:#95a6db;fill-opacity:1;fill-rule:nonzero;stroke:none"
           d="m 15635.4,2321.39 c 0,0 87,249.41 308.9,347.29 131,59.08 251.2,139.62 355.7,238.35 0,0 -75.4,-254.13 -288.8,-321.96 -196.8,-63.15 -304.7,-228.32 -304.7,-228.32 l -71.1,-35.36" /></g><g
         transform="scale(1.79567)"
         id="g74"><path
           id="path76"
           style="fill:#95a6db;fill-opacity:1;fill-rule:nonzero;stroke:none"
           d="m 15578.1,924.447 -39.7,6.572 c 40.4,245.031 289,1068.851 731.9,1554.961 l 29.7,-27.12 c -436.6,-479.43 -681.9,-1292.5 -721.9,-1534.413" /></g><g
         transform="scale(1.53779)"
         id="g78"><path
           id="path80"
           style="fill:#fd8810;fill-opacity:1;fill-rule:nonzero;stroke:none"
           d="m 16128,6338.83 -0.2,0.07 -175.1,18.01 -83.7,-409.09 c 0,0 -15.9,-97.68 158.2,-144.76 149.5,-40.51 263.8,98.52 263.8,98.52 l 9,418.26 -172,18.99" /></g><g
         transform="scale(1.56412)"
         id="g82"><path
           id="path84"
           style="fill:#fd8810;fill-opacity:1;fill-rule:nonzero;stroke:none"
           d="m 16243.5,6508.68 c -56.5,-281.03 -281.1,-472.84 -501.8,-428.47 -220.7,44.37 -353.8,308.1 -297.4,589.11 56.5,280.99 281.2,472.83 501.9,428.47 220.7,-44.36 353.8,-308.11 297.3,-589.11" /></g><g
         transform="scale(1.50447)"
         id="g86"><path
           id="path88"
           style="fill:#e8660f;fill-opacity:1;fill-rule:nonzero;stroke:none"
           d="m 16300,6795.53 c -46.3,-52.64 -104.4,-116.58 -104.4,-116.58 0,0 11.3,-65.37 92.8,-79.6 -32.3,19.94 -62.6,48.77 -41,92.51 21.6,43.73 52.6,103.67 52.6,103.67" /></g><g
         transform="scale(1.57301)"
         id="g90"><path
           id="path92"
           style="fill:#181b47;fill-opacity:1;fill-rule:nonzero;stroke:none"
           d="m 16258.2,6692.49 c 41.8,266.99 -199.3,371.6 -199.3,371.6 0,0 56.6,15.78 48.6,97.87 -40.6,-21.39 -89.1,-29.33 -134.4,-21.79 -305.1,50.81 -501.7,13.15 -479.1,-109.24 8,-43.55 -192.7,-52.27 -122.8,-342.34 21.2,32.3 46.6,157.12 108.2,180.9 61.7,23.85 19.7,-72.07 156.3,-65.8 137.9,6.32 230.7,57.19 326.9,-3.48 76.4,-54.29 154.4,-387.93 148.4,-409.98 13.9,50.58 128.8,184.93 147.2,302.26" /></g><g
         transform="scale(1.55927)"
         id="g94"><path
           id="path96"
           style="fill:#181b47;fill-opacity:1;fill-rule:nonzero;stroke:none"
           d="m 15479.9,6534.96 c 0,0 16.1,-156.27 47.1,-199.82 11.7,66.06 154.9,14.5 217.9,4.69 114.2,-17.71 237.6,76.5 266.2,-76.9 191.7,-32.45 220.3,300.22 220.3,300.22 68.6,-327.67 -55.8,-727.6 -523.5,-694.76 -311.1,21.93 -285.9,434.62 -228,666.57" /></g><g
         transform="scale(1.52709)"
         id="g98"><path
           id="path100"
           style="fill:#000000;fill-opacity:1;fill-rule:nonzero;stroke:none"
           d="m 16250,6703.5 c 22.8,-3.07 43.8,12.96 46.9,35.8 3.1,22.85 -12.9,43.85 -35.8,46.92 -22.9,3.07 -43.8,-12.97 -46.9,-35.81 -3.1,-22.85 13,-43.85 35.8,-46.91" /></g><g
         transform="scale(1.49609)"
         id="g102"><path
           id="path104"
           style="fill:#000000;fill-opacity:1;fill-rule:nonzero;stroke:none"
           d="m 16249,6888.99 c 23.3,-3.12 44.8,13.24 47.9,36.55 3.1,23.32 -13.3,44.77 -36.6,47.89 -23.3,3.13 -44.7,-13.24 -47.9,-36.55 -3.1,-23.32 13.3,-44.76 36.6,-47.89" /></g><g
         transform="scale(1.49871)"
         id="g106"><path
           id="path108"
           style="fill:#181b47;fill-opacity:1;fill-rule:nonzero;stroke:none"
           d="m 16154.7,6961.83 c 7,-0.93 14.2,1.71 18.8,7.59 12.8,16.15 26.8,24.97 41.7,26.24 25.7,2.17 48.2,-17.83 48.4,-18.02 8.4,-7.53 21.3,-6.93 28.9,1.37 7.5,8.31 7,21.13 -1.2,28.74 -1.5,1.31 -35.5,32.09 -79.1,28.64 -26.8,-2.12 -50.6,-16.13 -70.7,-41.66 -7,-8.84 -5.5,-21.69 3.3,-28.68 3,-2.36 6.5,-3.75 9.9,-4.22" /></g><g
         transform="scale(1.53353)"
         id="g110"><path
           id="path112"
           style="fill:#181b47;fill-opacity:1;fill-rule:nonzero;stroke:none"
           d="m 16274.6,6737.4 c 4.3,-0.58 8.8,0.26 12.9,2.69 9.4,5.68 12.5,17.95 6.8,27.39 -21.6,35.94 -48,57.47 -78.5,63.97 -39.2,8.41 -69.8,-12.4 -71.1,-13.3 -9,-6.28 -11.3,-18.72 -5,-27.78 6.3,-9 18.6,-11.26 27.7,-5.09 0.6,0.42 18.7,11.95 40.5,7.04 19.1,-4.27 36.6,-19.55 52.2,-45.43 3.3,-5.4 8.7,-8.71 14.5,-9.49" /></g><g
         transform="scale(1.57158)"
         id="g114"><path
           id="path116"
           style="fill:#fd8810;fill-opacity:1;fill-rule:nonzero;stroke:none"
           d="m 16107.9,6510.21 c -51.5,-42.91 -64.8,-111.9 -29.7,-154.11 35,-42.19 105.4,-41.61 156.9,1.34 51.5,42.87 64.9,111.87 29.8,154.06 -35.1,42.19 -105.4,41.61 -157,-1.29" /></g><g
         transform="scale(1.5637)"
         id="g118"><path
           id="path120"
           style="fill:#e8660f;fill-opacity:1;fill-rule:nonzero;stroke:none"
           d="m 16224,6402.91 c -2,0.93 -3.9,2.32 -5.3,4.17 -21.3,26.49 -24.3,56.96 -7.8,81.49 16.8,25.1 49.1,37.42 76.8,29.24 7.8,-2.29 12.3,-10.49 10,-18.29 -2.3,-7.82 -10.5,-12.28 -18.3,-9.99 -15.2,4.48 -34.5,-3.15 -44.1,-17.36 -9.1,-13.66 -6.9,-30.21 6.3,-46.61 5.1,-6.35 4.1,-15.62 -2.2,-20.72 -4.5,-3.62 -10.5,-4.17 -15.4,-1.93" /></g><g
         transform="scale(1.51894)"
         id="g122"><path
           id="path124"
           style="fill:#ffffff;fill-opacity:1;fill-rule:nonzero;stroke:none"
           d="m 16292.3,6404.77 c 7.7,8.17 2,21.53 -9.2,21.53 -28.7,0 -75.9,1.06 -120.4,6.39 -44.5,5.4 -90.6,15.54 -118.5,22.25 -10.9,2.7 -19.6,-8.95 -14,-18.7 17.2,-29.95 54.5,-76.76 122.7,-84.92 68.3,-8.23 115.6,28.44 139.4,53.45" /></g><path
         id="path126"
         style="fill:#95a6db;fill-opacity:1;fill-rule:nonzero;stroke:none"
         d="m 1952.42,8171.9 c 0,0 -251.57,-251.2 -142.96,-858.9 110.81,-619.3 -47.86,-983.4 -47.86,-983.4 l 184.38,-278.1 c 0,0 212.58,561.9 99.88,1055.4 -141.85,617.4 -93.44,1065 -93.44,1065" /><path
         id="path128"
         style="fill:#95a6db;fill-opacity:1;fill-rule:nonzero;stroke:none"
         d="m 1181.35,8213.3 c 0,0 -115.9,-235 80.91,-665.5 201.42,-438.5 169.3,-739.5 169.3,-739.5 l 156.6,-221.1 c 0,0 50.59,508.1 -126.19,853 -220.65,431.5 -280.62,773.1 -280.62,773.1" /><path
         id="path130"
         style="fill:#95a6db;fill-opacity:1;fill-rule:nonzero;stroke:none"
         d="m 2319.22,7451.5 c 0,0 177.75,-218.1 139.85,-883.3 -30.79,-542.1 -223.5,-775.3 -240.47,-1108.1 l -217.02,429.3 c 44.36,226.8 228.44,331.9 280.19,822.2 48.59,459 37.45,739.9 37.45,739.9" /><path
         id="path132"
         style="fill:#95a6db;fill-opacity:1;fill-rule:nonzero;stroke:none"
         d="m 3769.79,4993.2 c 0,0 25.89,-280.9 -376.32,-811.4 -327.9,-433 -600.53,-425 -681.66,-523.2 l -38.95,277.1 c 190.25,152.4 336.93,85.5 653.26,463.6 296.42,355 443.67,593.9 443.67,593.9" /><path
         id="path134"
         style="fill:#95a6db;fill-opacity:1;fill-rule:nonzero;stroke:none"
         d="m 2725.28,6913.1 c 0,0 26.38,-484.9 -19.22,-776.2 C 2642,5722.6 2422.82,5553.7 2326.99,5135.3 l 144.23,-331.1 c 0,0 318.25,376.7 376.85,891.1 98.37,863 -122.79,1217.8 -122.79,1217.8" /><path
         id="path136"
         style="fill:#95a6db;fill-opacity:1;fill-rule:nonzero;stroke:none"
         d="M 3430.83,6488 C 3313.09,6242.3 3231.91,5980.8 3189.9,5711.6 3068.4,4895 2482.61,4417 2482.61,4417 l 119.68,-204.2 c 0,0 627.33,270.5 710.1,959.2 86.67,727.9 118.44,1316 118.44,1316" /><path
         id="path138"
         style="fill:#95a6db;fill-opacity:1;fill-rule:nonzero;stroke:none"
         d="m 2002.58,5828.7 c 0,0 -167.26,118.6 -967.79,238.8 -513.052,76.8 -315.142,223.5 -822.563,214.2 346.765,-132 394.472,-425.9 867.513,-525.1 378.37,-79.1 749.97,-187.7 1111.38,-324.9 l -188.54,397" /><path
         id="path140"
         style="fill:#95a6db;fill-opacity:1;fill-rule:nonzero;stroke:none"
         d="m 361.785,5750.3 c 0,0 195.41,-467.9 894.765,-612.8 430.16,-90.2 842.56,-250.6 1220.68,-474.7 l -109.12,403.9 c 0,0 -225.67,286.5 -967.31,367.3 -509.53,55.7 -1039.015,316.3 -1039.015,316.3" /><path
         id="path142"
         style="fill:#95a6db;fill-opacity:1;fill-rule:nonzero;stroke:none"
         d="m 586.172,4983.2 c 0,0 195.422,-467.8 894.768,-612.8 430.16,-90.2 842.56,-250.6 1220.67,-474.7 l -109.12,403.9 c 0,0 -225.66,286.5 -967.3,367.3 -509.53,55.7 -1039.018,316.3 -1039.018,316.3" /><path
         id="path144"
         style="fill:#95a6db;fill-opacity:1;fill-rule:nonzero;stroke:none"
         d="m 232.48,7142.2 c 0,0 162.688,-260 608.086,-335 451.724,-75.8 747.144,-261.3 747.144,-261.3 l -86.79,163.9 c 0,0 -142.61,181.1 -611.377,232.4 -322.316,35.3 -657.063,200 -657.063,200" /><path
         id="path146"
         style="fill:#95a6db;fill-opacity:1;fill-rule:nonzero;stroke:none"
         d="m 1713.87,6282.1 c 0,0 -327.8,129.6 -836.097,226.3 -320.488,61.9 -683.359,368.1 -683.359,368.1 0,0 194.094,-539.2 681.563,-602.5 559.013,-72.4 1068.603,-294.7 1068.603,-294.7 l -230.71,302.8" /><path
         id="path148"
         style="fill:#95a6db;fill-opacity:1;fill-rule:nonzero;stroke:none"
         d="m 1519.04,6648.8 c 0,0 -155.8,518.9 -601.743,739.2 -263.176,132.8 -502.317,308.7 -707.551,520.3 0,0 131.895,-527.5 562.981,-685.6 397.563,-147 603.823,-495.1 603.823,-495.1 l 142.49,-78.8" /><path
         id="path150"
         style="fill:#95a6db;fill-opacity:1;fill-rule:nonzero;stroke:none"
         d="m 2671.53,3661.3 79.01,9.5 c -58.7,487.4 -478.38,2135.3 -1310.69,3133.3 l -61.14,-51 C 2199.41,5768.9 2613.4,4142.4 2671.53,3661.3" /><g
         transform="scale(1.0668)"
         id="g152"><path
           id="path154"
           style="fill:#4364cc;fill-opacity:1;fill-rule:nonzero;stroke:none"
           d="m 16300,3427.92 -395.7,-1837.46 c -10.6,-49.03 -28.1,-78.36 -46.9,-78.36 v 0 c -34.9,0 -61.5,98.05 -56.1,206.31 l 86.2,1709.51 h 412.5" /></g><g
         transform="scale(1.75912)"
         id="g156"><path
           id="path158"
           style="fill:#4364cc;fill-opacity:1;fill-rule:nonzero;stroke:none"
           d="m 15994.3,2078.82 239.9,-1114.303 c 6.5,-29.734 17.1,-47.525 28.5,-47.525 v 0 c 21.2,0 37.3,59.46 34,125.118 l -52.2,1036.71 h -250.2" /></g><g
         transform="scale(1.55839)"
         id="g160"><path
           id="path162"
           style="fill:#4364cc;fill-opacity:1;fill-rule:nonzero;stroke:none"
           d="m 15954.9,2346.58 270.8,-1257.83 c 7.2,-33.56 19.3,-53.64 32.2,-53.64 v 0 c 23.9,0 42.1,67.11 38.3,141.23 l -58.9,1170.24 h -282.4" /></g><g
         transform="scale(1.33704)"
         id="g164"><path
           id="path166"
           style="fill:#768fdb;fill-opacity:1;fill-rule:nonzero;stroke:none"
           d="m 16300,2470.84 h -3367.1 c -195.3,0 -353.7,158.33 -353.7,353.62 v 1797.55 c 0,151.83 123.1,274.94 275,274.94 H 16300 V 2470.84" /></g><g
         transform="scale(1.39494)"
         id="g168"><path
           id="path170"
           style="fill:#4364cc;fill-opacity:1;fill-rule:nonzero;stroke:none"
           d="m 16300,2368.27 h -3227.4 c -187.2,0 -338.9,151.76 -338.9,338.94 v 1722.93 c 0,145.53 118,263.52 263.5,263.52 H 16300 V 2368.27" /></g><g
         transform="scale(1.72063)"
         id="g172"><path
           id="path174"
           style="fill:#768fdb;fill-opacity:1;fill-rule:nonzero;stroke:none"
           d="m 16300,3328.44 h -4678.1 v 982.26 c 0,113.27 91.7,205.1 205,205.1 H 16300 V 3328.44" /></g><g
         transform="scale(1.75421)"
         id="g176"><path
           id="path178"
           style="fill:#95adf5;fill-opacity:1;fill-rule:nonzero;stroke:none"
           d="m 16300,3296.42 h -5933.2 c -135.7,0 -245.8,-110.03 -245.8,-245.76 v -283.37 h 6179 v 529.13" /></g><g
         transform="scale(1.75421)"
         id="g180"><path
           id="path182"
           style="fill:#768fdb;fill-opacity:1;fill-rule:nonzero;stroke:none"
           d="m 16300,2828.74 h -6179 v -946.87 h 6179 v 946.87" /></g><g
         transform="scale(1.75415)"
         id="g184"><path
           id="path186"
           style="fill:#4364cc;fill-opacity:1;fill-rule:nonzero;stroke:none"
           d="m 16300,3264.82 h -623.1 v 1164.67 h 421.9 c 111.1,0 201.2,-90.07 201.2,-201.18 v -963.49" /></g><g
         transform="scale(1.47633)"
         id="g188"><path
           id="path190"
           style="fill:#e86686;fill-opacity:1;fill-rule:nonzero;stroke:none"
           d="m 16078.6,6108.14 c 0,0 221.4,-205.38 99.9,-522.99 -121.5,-317.68 -389,-837.55 -669.7,-724.16 -227.9,424.43 413.8,1124.21 569.8,1247.15" /></g><g
         transform="scale(1.09394)"
         id="g192"><path
           id="path194"
           style="fill:#f37a50;fill-opacity:1;fill-rule:nonzero;stroke:none"
           d="m 16217.1,1937.94 -320.5,-104.39 -152.6,281.55 c 13.2,11.15 21.7,205.58 25,353.4 l 531,-37.48 c -15.9,-149.92 -46.4,-346.73 -82.9,-493.08" /></g><g
         transform="scale(1.09936)"
         id="g196"><path
           id="path198"
           style="fill:#2c2858;fill-opacity:1;fill-rule:nonzero;stroke:none"
           d="m 15576,1719.81 c 0,0 -124.7,181.11 -267.7,183.48 0,0 -267.1,-33.3 -353.7,-152.27 -27.2,-37.48 -10.8,-112.25 4.2,-159.91 9.2,-29.75 37.1,-60.86 118,-80.51 119.6,-29.01 279,-41.02 564.9,53.85 343,113.71 401.2,80.23 527.4,130.35 130.9,52.03 77,212.58 29.9,369.31 0,0 -84.3,-201.3 -623,-344.3" /></g><g
         transform="scale(1.09918)"
         id="g200"><path
           id="path202"
           style="fill:#4364cc;fill-opacity:1;fill-rule:nonzero;stroke:none"
           d="m 15658.3,2132.68 c 0,0 -149.4,-104.81 -350.1,-165.13 -112.2,-33.75 -412.1,-112.99 -349.7,-312.32 9.3,-29.75 37.2,-60.77 118.1,-80.51 119.6,-29.03 279.1,-41.04 565,53.85 343.1,113.81 401.3,80.24 527.6,130.46 130.8,51.95 56.7,233.36 9.6,390.11 v 0 c -0.6,-40.58 -12.3,-147.93 -248.4,-259.01 -70.5,-33.21 -32.7,290.03 -272.1,242.55" /></g><g
         transform="scale(1.17696)"
         id="g204"><path
           id="path206"
           style="fill:#f37a50;fill-opacity:1;fill-rule:nonzero;stroke:none"
           d="m 16255.3,1836 -290.3,-117.76 -159.8,251.07 c 11.4,11.13 6.6,192.02 0,329.23 h 494.8 c -5,-140.02 -20.4,-324.47 -44.7,-462.54" /></g><g
         transform="scale(1.2696)"
         id="g208"><path
           id="path210"
           style="fill:#8a284c;fill-opacity:1;fill-rule:nonzero;stroke:none"
           d="m 15325.4,4800.48 c -619.8,-156.42 -1483.8,-622.32 -1565.5,-720.7 -168.9,-203.05 -182.4,-865.86 -190,-2041.5 h 502.6 c 141.6,927.45 323.3,1338.69 329.7,1711.87 0,0 483.4,-1.1 1188.8,326.64 347.8,161.55 709,347.12 580.4,662.41 -102.4,251.19 -255,210.54 -846,61.28" /></g><g
         transform="scale(1.34721)"
         id="g212"><path
           id="path214"
           style="fill:#e62552;fill-opacity:1;fill-rule:nonzero;stroke:none"
           d="m 15089.3,4577.67 c -487.9,-83.58 -1105.6,-689.43 -1182.7,-782.14 -159.1,-191.35 -91.7,-807.44 -98.8,-1915.35 h 447 c 45.3,576.74 268.6,1234.32 239.8,1653.63 0,0 480.2,71.26 1145,380.12 327.7,152.24 660.4,137.1 581,517.81 -52.2,250.29 -565.2,242.87 -1131.3,145.93" /></g><g
         transform="scale(1.27484)"
         id="g216"><path
           id="path218"
           style="fill:#f37a50;fill-opacity:1;fill-rule:nonzero;stroke:none"
           d="m 14417.2,6940.01 c 130.3,131.54 44.8,266.46 44.8,266.46 71.6,15.37 449,-556.54 611.9,-919.96 283.9,286.23 784.2,672.64 919.5,695.15 0,0 182.5,49.1 248.1,-171.55 58.5,-196.97 -169.8,-336.52 -169.8,-336.52 0,0 -976.6,-689.41 -1121,-628.15 -224.7,95.38 -428.1,915.95 -533.5,1094.57" /></g><g
         transform="scale(1.14102)"
         id="g220"><path
           id="path222"
           style="fill:#f37a50;fill-opacity:1;fill-rule:nonzero;stroke:none"
           d="m 15880.2,7772.18 c 89,-5.52 199.1,38.56 233.5,-41.28 l 175.7,85.63 10.6,105.95 c -151,241.98 -519,310.6 -555.5,313.85 -94.6,8.32 -138.6,18.05 -146,5.43 -7.4,-12.71 -30.6,-97.02 106.8,-113.5 172.4,-20.68 58,-158.54 -291.8,-27.34 -87.5,32.87 -252.4,-9.73 -192.8,-73.71 65.7,-70.55 254.4,-230.4 659.5,-255.03" /></g><g
         transform="scale(1.39931)"
         id="g224"><path
           id="path226"
           style="fill:#2c2858;fill-opacity:1;fill-rule:nonzero;stroke:none"
           d="m 14528,6213.84 c -221.5,30.73 -573.6,125.84 -425.1,467.01 148.6,341.17 170.5,210.6 18.4,554.73 -152.2,344.12 44.1,681.6 303.4,661.5 259.3,-20.09 363.3,-204.5 652.1,-91.23 288.7,113.28 596.6,-114.06 535.3,-380.6 -61.4,-266.54 -84.8,-393.59 48.9,-505.71 133.8,-112.06 639,-156.51 509.1,-520.19 -129.9,-363.75 -224.8,-363.17 -121.2,-513.6 103.7,-150.51 -15.2,-371.9 -295.8,-404.42 -280.6,-32.51 -551.7,18.87 -717.6,304.8 -165.8,285.92 -507.5,427.71 -507.5,427.71" /></g><g
         transform="scale(1.28982)"
         id="g228"><path
           id="path230"
           style="fill:#3f964f;fill-opacity:1;fill-rule:nonzero;stroke:none"
           d="m 15247.2,6601.14 c 203.6,123.28 540.5,468.36 796.6,366.1 256.2,-102.26 169.3,-411.99 46.7,-540.07 -122.6,-128.09 -503.2,-421.15 -503.2,-421.15 l -340.1,595.12" /></g><g
         transform="scale(1.36607)"
         id="g232"><path
           id="path234"
           style="fill:#0e6a41;fill-opacity:1;fill-rule:nonzero;stroke:none"
           d="m 15967.6,4437.92 c -107.7,555.39 -81.3,554.15 -126.1,815.56 -110.5,646.01 458.5,1164.58 -373.2,1420.57 L 15100,6592.5 c -353.9,-174.73 -423.1,-488.92 -458,-703.33 -66.4,-408.18 -8.4,-1017.45 -8.4,-1017.45 l -139.1,-347.93 c 0,0 96.5,-96.92 554.4,-183.45 457.8,-86.45 918.7,97.58 918.7,97.58" /></g><g
         transform="scale(1.35348)"
         id="g236"><path
           id="path238"
           style="fill:#f37a50;fill-opacity:1;fill-rule:nonzero;stroke:none"
           d="m 16201.2,6144.32 c 89.2,-330.19 98.8,-1422.12 23.1,-1520.01 l -383,212.34 c 0,0 -177.3,1136.85 -197.5,1326.95 -35.9,329.08 412.8,520.14 557.4,-19.28" /></g><g
         transform="scale(1.35442)"
         id="g240"><path
           id="path242"
           style="fill:#3f964f;fill-opacity:1;fill-rule:nonzero;stroke:none"
           d="m 15625.9,5619.54 c -35.5,250.81 -82.9,730.28 127.6,887.32 210.5,157.11 411.9,-34.33 454.9,-197.58 43,-163.24 91.6,-618.12 91.6,-618.12 l -674.1,-71.62" /></g><g
         transform="scale(1.30926)"
         id="g244"><path
           id="path246"
           style="fill:#f37a50;fill-opacity:1;fill-rule:nonzero;stroke:none"
           d="m 16291.8,7543.93 c -8.2,-306.43 -209.9,-549.62 -450.5,-543.2 -240.7,6.41 -429.1,260.07 -421,566.43 8.2,306.4 209.9,549.59 450.6,543.16 240.6,-6.43 429.1,-260.02 420.9,-566.39" /></g><g
         transform="scale(1.30254)"
         id="g248"><path
           id="path250"
           style="fill:#f37a50;fill-opacity:1;fill-rule:nonzero;stroke:none"
           d="m 16297,7404.84 -332.5,-318.07 c 0,0 1.8,-176.27 -3.5,-234.69 -11.1,-120.62 133.4,-141.73 231.7,-47.3 98.4,94.43 107.3,194.78 107.3,194.78 l -3,405.28" /></g><g
         transform="scale(1.31839)"
         id="g252"><path
           id="path254"
           style="fill:#2c2858;fill-opacity:1;fill-rule:nonzero;stroke:none"
           d="m 15264.2,7619.88 c 109.3,13.45 338.1,81.31 401.7,199.88 103.7,-191.55 402,-331.7 634.1,-377.97 -35.8,211.51 -118.9,596.87 -528.6,677.66 -321.9,63.48 -507.2,-499.57 -507.2,-499.57" /></g><g
         transform="scale(1.24858)"
         id="g256"><path
           id="path258"
           style="fill:#000000;fill-opacity:1;fill-rule:nonzero;stroke:none"
           d="m 16293.9,7861.87 c -6.1,-23.46 -30,-37.56 -53.5,-31.47 -23.5,6.09 -37.5,30.03 -31.5,53.5 6.1,23.47 30.1,37.64 53.5,31.47 23.5,-6.08 37.6,-30.03 31.5,-53.5" /></g><g
         transform="scale(1.27622)"
         id="g260"><path
           id="path262"
           style="fill:#000000;fill-opacity:1;fill-rule:nonzero;stroke:none"
           d="m 16293.6,7696.16 c -6.5,-24.92 -31.8,-39.81 -56.7,-33.38 -24.9,6.43 -39.8,31.81 -33.4,56.65 6.5,24.92 31.9,39.81 56.8,33.38 24.8,-6.42 39.7,-31.81 33.3,-56.65" /></g><g
         transform="scale(1.28079)"
         id="g264"><path
           id="path266"
           style="fill:#2c2858;fill-opacity:1;fill-rule:nonzero;stroke:none"
           d="m 16277.7,7716.83 c -3.5,0.86 -6.6,2.89 -8.9,5.93 -33.1,44.19 -96.5,40.76 -97.1,40.76 -8.8,-0.55 -16.5,6.17 -17.1,14.99 -0.5,8.9 6.1,16.55 15,17.18 3.3,0.15 81.4,4.84 125,-53.64 5.4,-7.11 3.9,-17.18 -3.2,-22.57 -4.1,-2.96 -9.1,-3.82 -13.7,-2.65" /></g><g
         transform="scale(1.24898)"
         id="g268"><path
           id="path270"
           style="fill:#2c2858;fill-opacity:1;fill-rule:nonzero;stroke:none"
           d="m 16187.3,7918.33 c -1.6,0.48 -3.3,1.2 -4.9,2.24 -7.6,5.05 -9.7,15.29 -4.7,22.9 39,59.09 104,51.72 106.8,51.4 9.1,-1.12 15.5,-9.37 14.4,-18.41 -1.1,-9.05 -9.4,-15.45 -18.4,-14.33 -2.1,0.16 -47.8,4.72 -75.2,-36.91 -4,-6.01 -11.3,-8.57 -18,-6.89" /></g><g
         transform="scale(1.25773)"
         id="g272"><path
           id="path274"
           style="fill:#de623c;fill-opacity:1;fill-rule:nonzero;stroke:none"
           d="m 16227.8,7734.17 c -18.4,-29.02 -33.6,-58.2 -52.9,-76.96 -6.6,-6.36 -6.9,-16.86 -0.8,-23.7 24.8,-28.14 83,-43.41 118.2,-50.25 5.2,-1.03 7.7,5.97 3.1,8.51 -38.7,21.71 -57.1,39.84 -65.4,50.17 -4.2,5.09 -5.5,11.85 -3.8,18.21 3.9,14.63 11.5,44.36 15.8,68.61 1.5,8.35 -9.7,12.57 -14.2,5.41" /></g><g
         transform="scale(1.31672)"
         id="g276"><path
           id="path278"
           style="fill:#f37a50;fill-opacity:1;fill-rule:nonzero;stroke:none"
           d="m 16090.4,7476.17 c -46.3,-54.76 -47.5,-129.8 -2.7,-167.69 44.9,-37.83 118.7,-24.08 164.9,30.68 46.3,54.76 47.4,129.79 2.6,167.61 -44.8,37.9 -118.6,24.15 -164.8,-30.6" /></g><g
         transform="scale(1.3097)"
         id="g280"><path
           id="path282"
           style="fill:#de623c;fill-opacity:1;fill-rule:nonzero;stroke:none"
           d="m 16239.5,7375.36 c -2.3,0.53 -4.6,1.67 -6.5,3.36 -27.3,23.89 -36.1,55.43 -23.4,84.29 13.1,29.55 44.7,48.56 75.5,45.13 8.6,-1 14.9,-8.78 13.9,-17.41 -1,-8.63 -8.8,-14.89 -17.4,-13.9 -16.8,1.83 -35.8,-9.77 -43.1,-26.5 -7.1,-16.1 -1.6,-33.13 15.3,-47.87 6.6,-5.73 7.2,-15.73 1.5,-22.29 -4.1,-4.58 -10.3,-6.26 -15.8,-4.81" /></g><g
         transform="scale(1.34825)"
         id="g284"><path
           id="path286"
           style="fill:#f37a50;fill-opacity:1;fill-rule:nonzero;stroke:none"
           d="m 15931.8,4886.72 c 111,35.16 368.2,-205.82 359.2,-245.5 -330.3,-605.9 -1176.5,-854.67 -1176.5,-854.67 l -147.9,111.7 c 0,0 569.9,479.89 965.2,988.47" /></g><g
         transform="scale(1.25019)"
         id="g288"><path
           id="path290"
           style="fill:#f37a50;fill-opacity:1;fill-rule:nonzero;stroke:none"
           d="m 16300,4083.54 c -17.8,-170.45 -271.6,-392.58 -493.8,-408.42 -222.1,-15.84 -150.7,198.29 -63.4,253.88 87.3,55.52 212.9,110.79 181.8,154.54 -31.1,43.75 -86.7,32.23 -126.3,83.43 -35.3,45.67 137.7,135.82 342.2,37.03 68.9,-51.99 159.5,-120.46 159.5,-120.46" /></g><g
         transform="scale(1.26458)"
         id="g292"><path
           id="path294"
           style="fill:#ffffff;fill-opacity:1;fill-rule:nonzero;stroke:none"
           d="m 16293.7,7443.75 c 6.3,-30.12 -15.2,-60.09 -48.1,-67.05 -32.9,-6.96 -64.7,11.78 -71.1,41.91 -6.3,30.05 15.2,60.1 48.1,67.06 32.9,6.96 64.7,-11.79 71.1,-41.92" /></g><g
         transform="scale(1.18555)"
         id="g296"><path
           id="path298"
           style="fill:#2c2858;fill-opacity:1;fill-rule:nonzero;stroke:none"
           d="m 15632.2,1593.19 c 0,0 -127.2,159.34 -259.6,152.25 0,0 -245,-48.25 -317.3,-164.06 -22.7,-36.35 -2.7,-104.51 14.3,-147.61 10.5,-26.82 38.3,-53.82 114.5,-66.72 112.4,-18.98 260.7,-19.74 519,86.63 309.9,127.62 365.9,100.37 479.3,155.03 117.6,56.6 57.3,201.59 3.6,343.56 0,0 -64.9,-191.73 -553.8,-359.08" /></g><g
         transform="scale(1.18507)"
         id="g300"><path
           id="path302"
           style="fill:#4364cc;fill-opacity:1;fill-rule:nonzero;stroke:none"
           d="m 15685.4,1980.73 c 0,0 -131.5,-106.74 -313.2,-175.6 -101.6,-38.65 -373.9,-131.47 -303.2,-311.8 10.6,-26.92 38.4,-53.92 114.5,-66.74 112.6,-19.08 260.9,-19.83 519.3,86.66 310,127.67 366.1,100.41 479.6,155.1 117.6,56.62 37.3,219.65 -16.6,361.58 v 0 c 2.1,-37.64 -1.7,-137.63 -213,-255.94 -63,-35.27 -49.1,266.32 -267.4,206.74" /></g><g
         transform="scale(1.33338)"
         id="g304"><path
           id="path306"
           style="fill:#f37a50;fill-opacity:1;fill-rule:nonzero;stroke:none"
           d="m 16231.9,1588.67 -262.9,-85.65 -125.2,230.99 c 10.9,9.15 17.8,168.67 20.5,289.94 l 435.7,-30.75 c -13.1,-123.06 -38.1,-284.46 -68.1,-404.53" /></g><g
         transform="scale(1.33879)"
         id="g308"><path
           id="path310"
           style="fill:#201d40;fill-opacity:1;fill-rule:nonzero;stroke:none"
           d="m 15705.5,1410.97 c 0,0 -102.4,148.72 -219.8,150.66 0,0 -219.4,-27.26 -290.5,-125.11 -22.3,-30.7 -8.8,-92.17 3.4,-131.24 7.7,-24.42 30.5,-49.97 97,-66.1 98.1,-23.83 229.1,-33.69 463.8,44.22 281.7,93.36 329.5,65.8 433.1,107.03 107.5,42.73 63.2,174.56 24.6,303.26 0,0 -69.3,-165.3 -511.6,-282.72" /></g><g
         transform="scale(1.33861)"
         id="g312"><path
           id="path314"
           style="fill:#2c2858;fill-opacity:1;fill-rule:nonzero;stroke:none"
           d="m 15773.1,1749.95 c 0,0 -122.7,-86.06 -287.4,-135.59 -92.2,-27.79 -338.5,-92.78 -287.2,-256.46 7.6,-24.43 30.5,-49.98 97,-66.11 98.1,-23.84 229.1,-33.7 463.9,44.22 281.7,93.45 329.5,65.89 433.2,107.05 107.4,42.73 46.5,191.69 7.9,320.41 v 0 c -0.5,-33.39 -10.1,-121.47 -204,-212.76 -57.9,-27.19 -26.8,238.23 -223.4,199.24" /></g><g
         transform="scale(1.30159)"
         id="g316"><path
           id="path318"
           style="fill:#494c7f;fill-opacity:1;fill-rule:nonzero;stroke:none"
           d="m 16273.9,1596.2 c -9.9,0 -19.1,6.3 -22.2,16.14 -26.5,82.36 -113.4,82.44 -117,82.44 -12.8,-0.08 -23.4,10.22 -23.5,23.04 -0.3,12.83 9.9,23.36 22.8,23.59 43.1,0.84 132.3,-22.28 162.1,-114.78 3.9,-12.3 -2.9,-25.43 -15.2,-29.35 -2.3,-0.77 -4.7,-1.08 -7,-1.08" /></g><g
         transform="scale(1.29319)"
         id="g320"><path
           id="path322"
           style="fill:#494c7f;fill-opacity:1;fill-rule:nonzero;stroke:none"
           d="m 16273.7,1555.69 c -10,0 -19.2,6.34 -22.3,16.32 -26.6,82.81 -114,82.97 -117.7,82.97 -12.9,-0.16 -23.6,10.21 -23.8,23.12 -0.1,12.91 10.1,23.58 23,23.82 43.5,0.85 133.3,-22.43 163.2,-115.53 3.9,-12.38 -2.9,-25.6 -15.2,-29.54 -2.4,-0.78 -4.8,-1.16 -7.2,-1.16" /></g><g
         transform="scale(1.41706)"
         id="g324"><path
           id="path326"
           style="fill:#f37a50;fill-opacity:1;fill-rule:nonzero;stroke:none"
           d="m 16262.9,1465.64 -241.2,-97.73 -132.7,208.46 c 9.5,9.31 34.4,169.08 28.9,283.12 l 382.1,-9.6 c -4.1,-116.37 -16.9,-269.57 -37.1,-384.25" /></g><g
         transform="scale(1.50903)"
         id="g328"><path
           id="path330"
           style="fill:#201d40;fill-opacity:1;fill-rule:nonzero;stroke:none"
           d="m 15480.1,4037.69 c -521.5,-131.67 -1248.4,-523.65 -1317.2,-606.35 -142,-170.9 -179.9,-728.48 -186.2,-1717.59 h 464 c 119.2,780.3 257.2,1126.28 262.6,1440.26 0,0 406.7,-0.99 1000.2,274.81 292.6,135.92 596.5,291.98 488.3,557.31 -86.2,211.33 -214.5,177.14 -711.7,51.56" /></g><g
         transform="scale(1.58382)"
         id="g332"><path
           id="path334"
           style="fill:#2c2858;fill-opacity:1;fill-rule:nonzero;stroke:none"
           d="m 15314.6,3840.79 c -415,-71.03 -940.5,-586.43 -1006,-665.23 -135.3,-162.84 -118.8,-686.82 -124.8,-1629.23 l 440.8,-11.18 c 38.5,490.59 208.6,1061.11 184.2,1417.78 0,0 386.5,111.19 984.3,288.23 327.1,96.85 423.3,154.94 472.3,375.99 16.7,75.2 34.6,248.07 -1.1,284 -157.9,158.92 -556.9,6.94 -949.7,-60.36" /></g><g
         transform="scale(1.42564)"
         id="g336"><path
           id="path338"
           style="fill:#201d40;fill-opacity:1;fill-rule:nonzero;stroke:none"
           d="m 15744.6,1265.95 c 0,0 -105.8,132.58 -215.8,126.69 0,0 -203.8,-40.13 -263.9,-136.43 -18.9,-30.24 -2.2,-86.91 11.8,-122.76 8.8,-22.37 31.9,-44.75 95.2,-55.48 93.6,-15.85 216.8,-16.48 431.7,72.04 257.6,106.12 304.2,83.47 398.6,128.92 97.8,47.07 47.6,167.64 2.9,285.63 0,0 -53.9,-159.37 -460.5,-298.61" /></g><g
         transform="scale(1.42517)"
         id="g340"><path
           id="path342"
           style="fill:#2c2858;fill-opacity:1;fill-rule:nonzero;stroke:none"
           d="m 15788.9,1588.17 c 0,0 -109.4,-88.77 -260.5,-146.09 -84.4,-32.07 -310.9,-109.25 -252,-259.2 8.8,-22.38 31.9,-44.84 95.2,-55.57 93.6,-15.79 216.9,-16.42 431.8,72.06 257.8,106.16 304.3,83.5 398.7,128.97 97.9,47.15 31,182.64 -13.7,300.74 v 0 c 1.7,-31.3 -1.4,-114.45 -177.1,-212.82 -52.5,-29.33 -40.9,221.38 -222.4,171.91" /></g><g
         transform="scale(1.3915)"
         id="g344"><path
           id="path346"
           style="fill:#494c7f;fill-opacity:1;fill-rule:nonzero;stroke:none"
           d="m 16275.5,1434.57 c -9.2,0 -17.8,5.82 -20.7,15.16 -24.7,76.9 -106,77.04 -109.4,77.04 -12.1,-0.07 -21.9,9.56 -22.1,21.56 -0.2,12 9.4,21.85 21.4,22.06 40.3,0.8 123.8,-20.84 151.6,-107.36 3.7,-11.5 -2.6,-23.79 -14.1,-27.45 -2.2,-0.72 -4.5,-1.01 -6.7,-1.01" /></g><g
         transform="scale(1.3831)"
         id="g348"><path
           id="path350"
           style="fill:#494c7f;fill-opacity:1;fill-rule:nonzero;stroke:none"
           d="m 16275.4,1395.71 c -9.3,0 -17.9,5.93 -20.9,15.25 -24.8,77.44 -106.6,77.58 -110,77.58 -12.1,-0.14 -22.1,9.55 -22.2,21.62 -0.2,12.08 9.4,22.05 21.5,22.27 40.5,0.8 124.5,-20.97 152.5,-108.09 3.7,-11.5 -2.7,-23.86 -14.2,-27.55 -2.2,-0.72 -4.4,-1.08 -6.7,-1.08" /></g><g
         transform="scale(1.55774)"
         id="g352"><path
           id="path354"
           style="fill:#ffd0b7;fill-opacity:1;fill-rule:nonzero;stroke:none"
           d="m 16228,5715.52 c -123.4,41.66 -253.2,60.98 -383.3,57.13 -440.9,0 -508.4,-111.38 -508.4,-108.75 l 327.1,-898.41 181.3,-89.36 198.3,58.73 c 0,0 257,953.89 185,980.66" /></g><g
         transform="scale(1.58236)"
         id="g356"><path
           id="path358"
           style="fill:#f5a3b7;fill-opacity:1;fill-rule:nonzero;stroke:none"
           d="m 16300,3868.09 c 0,0 -353.3,-90.5 -681.4,-92.64 -327.9,2.4 -674.6,120.39 -674.6,120.39 0,0 44,602.33 39.5,833.69 -6.3,265.62 17.1,617.81 17.1,968.81 0,0 232.6,37.48 363.9,53.65 21.3,2.66 39.9,4.68 54.5,5.94 0,0 74.8,-156.85 400.6,0 17.1,1.71 38.3,1.65 62,0.26 136.9,-8.16 357.4,-59.85 357.4,-59.85 0,-350.05 14,-693.15 9.3,-958.82 14.6,-236.93 51.7,-871.43 51.7,-871.43" /></g><g
         transform="scale(1.49858)"
         id="g360"><path
           id="path362"
           style="fill:#f37a50;fill-opacity:1;fill-rule:nonzero;stroke:none"
           d="m 16300,5215.66 -83.8,48.58 c 0,0 -23.2,118.91 -157.9,121.78 15.4,-49.91 37.6,-121.78 37.6,-121.78 0,0 -66.2,-51.45 -223.4,36.64 -153.6,34.49 -88,-77.54 -139,-85.55 -75.1,-11.88 54.8,-159.55 208.2,-182.17 198.6,-29.23 222.1,11.41 222.1,11.41 l 112.4,-39.24 23.8,210.33" /></g><g
         transform="scale(1.63069)"
         id="g364"><path
           id="path366"
           style="fill:#e86686;fill-opacity:1;fill-rule:nonzero;stroke:none"
           d="m 15692.5,4676.37 c -257.5,17.97 -696.8,145.22 -696.8,145.22 -70.3,-107.87 -50.9,-251.12 -50.9,-251.12 400,-350.65 1001.9,-463.98 1186.6,-379.6 168.6,77.08 49.6,1103.46 -373.8,1338.58 l -14.7,-1.35 c -145.1,-245.6 -50.4,-851.73 -50.4,-851.73" /></g><g
         transform="scale(1.54174)"
         id="g368"><path
           id="path370"
           style="fill:#e86686;fill-opacity:1;fill-rule:nonzero;stroke:none"
           d="m 16300,5909.87 v -0.06 c -23.3,-38.79 -56.2,-68.17 -102.6,-91.52 -73.5,-37.1 -173.4,-52.8 -234.9,-48 -48.7,3.83 -102.7,23.67 -137.3,51.11 -36.8,29.19 -52.7,66.36 -56,82.11 21.9,2.73 44.4,6.1 59.3,7.46 0,0 73.4,-162.34 407.8,-1.36 17.6,1.75 39.4,1.69 63.7,0.26" /></g><g
         transform="scale(1.74369)"
         id="g372"><path
           id="path374"
           style="fill:#768fdb;fill-opacity:1;fill-rule:nonzero;stroke:none"
           d="m 16068.9,1915.65 h -1897.2 c -127.7,0 -231.2,103.51 -231.2,231.17 v 1449.4 c 0,99.27 80.5,179.73 179.8,179.73 h 2000 c 99.2,0 179.7,-80.46 179.7,-179.73 v -1449.4 c 0,-127.66 -103.5,-231.17 -231.1,-231.17" /></g><g
         transform="scale(1.75421)"
         id="g376"><path
           id="path378"
           style="fill:#4364cc;fill-opacity:1;fill-rule:nonzero;stroke:none"
           d="m 16300,1881.87 h -1676.9 c -114.4,0 -207.1,92.75 -207.1,207.22 v 1503.13 c 0,88.98 72.1,161.1 161.1,161.1 H 16300 V 1881.87" /></g><path
         id="path380"
         style="fill:#fd8810;fill-opacity:1;fill-rule:nonzero;stroke:none"
         d="m 11995.2,9795.2 0.3,0.1 292.4,30.1 139.9,-683.3 c 0,0 26.6,-163.1 -264.2,-241.8 -249.8,-67.6 -440.6,164.5 -440.6,164.5 l -15.1,698.7 287.3,31.7" /><path
         id="path382"
         style="fill:#fd8810;fill-opacity:1;fill-rule:nonzero;stroke:none"
         d="m 11568.7,10033.4 c 181,-424.8 598.2,-653.9 931.8,-511.7 333.6,142.1 495.9,564.2 285.7,1035.9 -188,421.8 -607.6,644.4 -941.2,502.3 -333.6,-142.2 -457.3,-601.8 -276.3,-1026.5" /><path
         id="path384"
         style="fill:#000000;fill-opacity:1;fill-rule:nonzero;stroke:none"
         d="m 12639.8,10398.8 c 37.4,-3.8 70.8,23.4 74.6,60.7 3.8,37.4 -23.3,70.8 -60.7,74.6 -37.4,3.8 -70.7,-23.3 -74.6,-60.7 -3.8,-37.3 23.4,-70.7 60.7,-74.6" /><path
         id="path386"
         style="fill:#000000;fill-opacity:1;fill-rule:nonzero;stroke:none"
         d="m 12165.7,10296.3 c 23.8,-29.2 66.8,-33.6 96,-9.8 29.3,23.8 33.7,66.8 9.9,96 -23.8,29.3 -66.8,33.7 -96.1,9.9 -29.2,-23.8 -33.6,-66.8 -9.8,-96.1" /><path
         id="path388"
         style="fill:#de623c;fill-opacity:1;fill-rule:nonzero;stroke:none"
         d="m 12494.2,10374.2 c 91.7,-79.1 206.4,-174.8 206.4,-174.8 0,0 -3.8,-114.5 -139.9,-158.2 50.4,41.7 95.5,98.3 48.1,168 -47.4,69.7 -114.6,165 -114.6,165" /><path
         id="path390"
         style="fill:#181b47;fill-opacity:1;fill-rule:nonzero;stroke:none"
         d="m 12063.6,10387.3 c 13.9,-3.2 28.6,3.4 35.2,16.7 1.6,3.1 40.7,78.2 109.2,62.7 17,-3.8 33.8,6.8 37.7,23.7 3.8,17 -7,33.9 -23.8,37.7 -93.6,21.2 -158.3,-53.6 -179.4,-96.1 -7.8,-15.6 -1.4,-34.4 14.1,-42.2 2.3,-1.1 4.6,-1.9 7,-2.5" /><path
         id="path392"
         style="fill:#181b47;fill-opacity:1;fill-rule:nonzero;stroke:none"
         d="m 12727.4,10548.5 c -11.7,-8.1 -27.8,-7.4 -38.9,2.5 -2.6,2.3 -66.6,57.7 -124.6,18.1 -14.3,-9.8 -33.9,-6.2 -43.7,8.2 -9.8,14.3 -6.1,34 8.2,43.7 79.2,54.2 166.9,8.5 202.2,-23.2 12.9,-11.6 14,-31.5 2.4,-44.4 -1.7,-1.9 -3.6,-3.5 -5.6,-4.9" /><path
         id="path394"
         style="fill:#181b47;fill-opacity:1;fill-rule:nonzero;stroke:none"
         d="m 11640.5,10028.3 c -12.7,167.2 135.6,142.8 134.3,364.4 -1.2,221.6 7,390.4 218.9,369.9 211.9,-20.4 258.2,32.8 338.9,88.7 242.6,168.2 440.7,-265.9 440.7,-265.9 0,0 108.7,400.7 -127.4,561.1 -261.6,177.9 -297.6,14.6 -532.7,135.3 -235.1,120.7 -551,3.1 -606.2,-139 -58.2,-149.8 -62.6,-254.2 -250.6,-370.5 -188,-116.2 -273,-292.3 -74.5,-487.7 198.4,-195.3 -90.7,-370 230.4,-539.7 124.6,-65.8 331.4,-67.8 360.8,-22.5 39.5,60.6 -124.4,198.2 -132.6,305.9" /><path
         id="path396"
         style="fill:#181b47;fill-opacity:1;fill-rule:nonzero;stroke:none"
         d="m 12865.3,10305.4 c 0,0 18.7,-197.4 -17.8,-274 -36.5,100 -143.1,4.4 -218.4,-4.9 -181.8,-22.5 -512.1,6.6 -546.9,-265.6 -222.5,-68.5 -434.9,397.5 -434.9,397.5 -17.2,-530.8 364.9,-1052.2 1026.3,-892.7 471.8,113.8 345.8,693.3 191.7,1039.7" /><path
         id="path398"
         style="fill:#ffffff;fill-opacity:1;fill-rule:nonzero;stroke:none"
         d="m 12790.5,9902.1 c 7.3,20.7 -8.4,45.3 -25.3,39.6 -42.9,-14.4 -114.2,-36.2 -183.9,-47.8 -69.6,-11.5 -144.2,-13.9 -189.5,-14.2 -17.8,-0.1 -24.7,-28.4 -11.1,-45.6 41.7,-52.9 122.5,-130.2 229.2,-112.5 106.7,17.7 158.2,117 180.6,180.5" /><path
         id="path400"
         style="fill:#fd8810;fill-opacity:1;fill-rule:nonzero;stroke:none"
         d="m 11688.9,10152.8 c 90.5,-66.4 119.9,-180.3 65.6,-254.4 -54.4,-74.1 -171.8,-80.4 -262.4,-14 -90.5,66.4 -119.9,180.3 -65.5,254.4 54.3,74.1 171.7,80.3 262.3,14" /><path
         id="path402"
         style="fill:#de623c;fill-opacity:1;fill-rule:nonzero;stroke:none"
         d="m 11645.2,9916.3 c 3.2,1.8 6.1,4.3 8.4,7.5 32.7,46.2 34.5,97.1 4.7,136.3 -30.5,40 -85.6,57.1 -130.8,40.7 -12.8,-4.6 -19.4,-18.7 -14.8,-31.4 4.7,-12.8 18.7,-19.4 31.5,-14.7 24.8,8.9 57.8,-1.8 75,-24.4 16.6,-21.8 14.6,-49.5 -5.7,-78.1 -7.8,-11.1 -5.2,-26.4 5.9,-34.3 7.8,-5.5 17.8,-5.8 25.8,-1.6" /><path
         id="path404"
         style="fill:#4364cc;fill-opacity:1;fill-rule:nonzero;stroke:none"
         d="m 13559.8,1562.3 v 0 c 76.3,0 138.1,61.8 138.1,138.1 v 2447.7 h -276.3 V 1700.4 c 0,-76.3 61.9,-138.1 138.2,-138.1" /><path
         id="path406"
         style="fill:#4364cc;fill-opacity:1;fill-rule:nonzero;stroke:none"
         d="m 12590.4,1562.3 v 0 c 76.3,0 138.1,61.8 138.1,138.1 v 2447.7 h -276.2 V 1700.4 c 0,-76.3 61.8,-138.1 138.1,-138.1" /><path
         id="path408"
         style="fill:#4364cc;fill-opacity:1;fill-rule:nonzero;stroke:none"
         d="m 11318.4,1562.3 v 0 c 76.3,0 138.2,61.8 138.2,138.1 v 2447.7 h -276.3 V 1700.4 c 0,-76.3 61.8,-138.1 138.1,-138.1" /><path
         id="path410"
         style="fill:#4364cc;fill-opacity:1;fill-rule:nonzero;stroke:none"
         d="m 10349.1,1562.3 v 0 c 76.3,0 138.1,61.8 138.1,138.1 v 2447.7 h -276.3 V 1700.4 c 0,-76.3 61.9,-138.1 138.2,-138.1" /><path
         id="path412"
         style="fill:#768fdb;fill-opacity:1;fill-rule:nonzero;stroke:none"
         d="m 10119.8,4754.4 h 1427.9 v 3424 h -1427.9 v -3424" /><path
         id="path414"
         style="fill:#95adf5;fill-opacity:1;fill-rule:nonzero;stroke:none"
         d="m 14592.2,4429.4 h -4142.5 v 994.2 h 3563.8 c 319.6,0 578.7,-259.1 578.7,-578.6 v -415.6" /><path
         id="path416"
         style="fill:#4364cc;fill-opacity:1;fill-rule:nonzero;stroke:none"
         d="M 10449.7,7848.5 V 4867.9 c 0,-33.2 26.9,-60 60.1,-60 h 3756 c 182.2,0 329.9,-147.7 329.9,-329.9 v 0 c 0,-182.2 -147.7,-329.9 -329.9,-329.9 h -3816.1 -329.9 c -182.18,0 -329.88,147.7 -329.88,329.9 v 329.9 3040.6 c 0,182.2 147.7,329.9 329.88,329.9 v 0 c 182.2,0 329.9,-147.7 329.9,-329.9" /><path
         id="path418"
         style="fill:#f37a50;fill-opacity:1;fill-rule:nonzero;stroke:none"
         d="m 9219.48,9195.1 c 99.14,70.6 229.33,123 229.33,123 135.34,-211.1 213.57,-974.2 339.69,-1220.5 563.4,747 1056.8,953.2 1252,985.7 0,0 338,88.1 432.6,-230.3 84.5,-284.1 -244.9,-485.5 -244.9,-485.5 0,0 -1408.95,-994.7 -1617.32,-906.3 -324.26,137.6 -633.45,881.1 -391.4,1733.9" /><path
         id="path420"
         style="fill:#f37a50;fill-opacity:1;fill-rule:nonzero;stroke:none"
         d="m 8911.62,9101.2 c 114.96,-7 257.14,49.8 301.44,-53.3 l 226.9,110.6 21.68,140 c -194.98,312.4 -678.19,397.9 -725.25,402.1 -122.25,10.7 -179.03,23.3 -188.57,7 -9.55,-16.4 -39.5,-125.2 137.9,-146.5 222.61,-26.8 74.83,-204.7 -376.81,-35.3 -113.08,42.4 -325.91,-12.6 -248.93,-95.3 84.81,-91.1 328.51,-297.4 851.64,-329.3" /><path
         id="path422"
         style="fill:#8a284c;fill-opacity:1;fill-rule:nonzero;stroke:none"
         d="m 9154.25,9102.2 c 99.14,70.6 294.56,215.9 294.56,215.9 207.76,-286 285.66,-868.4 339.69,-1220.5 563.4,747 1056.8,953.2 1252,985.7 0,0 338,88.1 432.6,-230.3 84.5,-284.1 -243,-613.6 -243,-613.6 0,0 -1419.68,-1031 -1628.05,-942.6 -324.27,137.6 -689.85,952.7 -447.8,1805.4" /><path
         id="path424"
         style="fill:#f37a50;fill-opacity:1;fill-rule:nonzero;stroke:none"
         d="m 14887.7,2348.3 139.9,-424.7 398.1,310.2 c -14.4,12.2 30,294.9 26.7,456.6 l -525.1,18.4 c -25.9,-165.6 -39.6,-360.5 -39.6,-360.5" /><path
         id="path426"
         style="fill:#201d40;fill-opacity:1;fill-rule:nonzero;stroke:none"
         d="m 15550.8,1889.7 c 0,0 137.4,198.9 294.5,201.3 0,0 293.7,-37 388.6,-168 29.8,-41.2 11.7,-123.4 -4.8,-175.7 -10.3,-32.7 -40.9,-66.8 -129.9,-88.3 -131.4,-31.7 -306.7,-44.7 -620.8,60 -376.8,125.6 -440.8,88.8 -579.5,144.2 -143.7,57.4 -84.2,233.7 -32.2,405.9 0,0 92.3,-221.3 684.1,-379.4" /><g
         transform="scale(1.00006)"
         id="g428"><path
           id="path430"
           style="fill:#2c2858;fill-opacity:1;fill-rule:nonzero;stroke:none"
           d="m 15462.9,2343.06 c 0,0 164,-115.29 384.4,-181.99 123.3,-37.3 452.7,-124.79 383.8,-343.68 -10.3,-32.7 -40.9,-66.8 -129.9,-88.29 -131.5,-31.7 -306.7,-44.7 -620.7,59.99 -376.8,125.59 -440.9,88.9 -579.5,144.19 -143.7,57.4 -62,256.59 -10,428.77 v 0 c 0.6,-44.69 13.2,-162.58 272.6,-285.08 77.5,-36.6 36.4,318.68 299.3,266.09" /></g><path
         id="path432"
         style="fill:#494c7f;fill-opacity:1;fill-rule:nonzero;stroke:none"
         d="m 15395.7,2078.5 c 12.8,0 24.8,8.2 28.9,21 34.5,107 147.6,107.1 152.4,107.1 16.7,-0.2 30.4,13.1 30.7,29.9 0.2,16.7 -13,30.4 -29.7,30.8 -56.1,1.1 -172.3,-28.8 -211.1,-149.1 -5.2,-16 3.6,-33.1 19.5,-38.2 3.1,-1 6.2,-1.5 9.3,-1.5" /><path
         id="path434"
         style="fill:#494c7f;fill-opacity:1;fill-rule:nonzero;stroke:none"
         d="m 15532.4,2012.5 c 12.9,0 24.8,8.2 29,21.1 34.5,107 147.5,107 152.3,107 16.7,-0.2 30.5,13.2 30.7,29.9 0.3,16.7 -13,30.5 -29.7,30.8 -56.1,1.2 -172.3,-28.7 -211.1,-149.1 -5.1,-16 3.6,-33 19.6,-38.2 3.1,-1 6.2,-1.5 9.2,-1.5" /><path
         id="path436"
         style="fill:#201d40;fill-opacity:1;fill-rule:nonzero;stroke:none"
         d="m 13261.9,6023.8 c 781.6,-217.8 1932.5,-844.6 2033.2,-971.9 207.9,-262.9 114.4,-994.7 191.4,-2627.3 l -640.6,17.1 c -144.7,1258 -448.4,1746.9 -444.9,2220.7 0,0 -613.5,13.5 -1498.5,451.2 -436.3,215.8 -888.9,462.4 -716,858.5 137.7,315.7 330.1,259.3 1075.4,51.7" /><path
         id="path438"
         style="fill:#f37a50;fill-opacity:1;fill-rule:nonzero;stroke:none"
         d="m 13496.1,2070.9 529.4,-461.8 28.9,548.7 c -14.2,12.4 -50,310.7 -51,472.4 l -504,-39.8 c 14.7,-164.3 -40.6,-358.8 -3.3,-519.5" /><path
         id="path440"
         style="fill:#2c2858;fill-opacity:1;fill-rule:nonzero;stroke:none"
         d="m 12427.3,5997.7 c 912.6,-122.3 1577.5,-1030.1 1650.2,-1175.2 147.9,-295.2 -72,-891.2 18,-2380.8 l -673.9,44.3 c -102.7,772.4 -268.7,1376 -260.6,1942.1 0,0 -478.8,351.8 -1439.2,580.7 -525.4,125.2 -682.5,208.8 -778.9,554.2 -32.8,117.4 -75.8,389.3 -22.4,449.1 236,264.8 881.3,69.5 1506.8,-14.4" /><path
         id="path442"
         style="fill:#201d40;fill-opacity:1;fill-rule:nonzero;stroke:none"
         d="m 14037.7,1724 c 0,0 176.3,165.3 330.4,134.5 0,0 279.2,-98.2 344.3,-246.4 20.5,-46.5 -14.6,-123 -41.8,-170.7 -17,-29.8 -54.1,-56.7 -145.6,-58.8 -135.2,-3.3 -309.2,21.1 -594.1,189.8 -341.8,202.4 -412.2,180 -536,263.4 -128.3,86.4 -32.9,246.2 54.3,403.5 0,0 43.5,-235.8 588.5,-515.3" /><path
         id="path444"
         style="fill:#494c7f;fill-opacity:1;fill-rule:nonzero;stroke:none"
         d="m 13866.1,1942.1 c 12.8,-1.8 25.7,4.6 31.7,16.7 49.3,101.1 161.2,85 166,84.4 16.5,-2.6 32,8.7 34.6,25.2 2.6,16.5 -8.5,32 -25,34.7 -55.4,9.1 -174.7,-4 -230.2,-117.6 -7.3,-15.1 -1.1,-33.2 14,-40.6 2.9,-1.4 5.9,-2.3 8.9,-2.8" /><path
         id="path446"
         style="fill:#494c7f;fill-opacity:1;fill-rule:nonzero;stroke:none"
         d="m 13992.1,1857.4 c 12.7,-1.8 25.7,4.6 31.7,16.8 49.3,101 161.2,85 165.9,84.3 16.6,-2.6 32.1,8.7 34.7,25.2 2.6,16.5 -8.5,32 -25,34.7 -55.4,9.1 -174.7,-4 -230.2,-117.6 -7.3,-15.1 -1.1,-33.2 14,-40.6 2.9,-1.4 5.9,-2.3 8.9,-2.8" /><path
         id="path448"
         style="fill:#4364cc;fill-opacity:1;fill-rule:nonzero;stroke:none"
         d="m 8570.04,3065.1 422.04,-1345.7 c 11.26,-35.9 30.04,-57.4 50.12,-57.4 v 0 c 37.2,0 65.59,71.8 59.78,151.2 l -91.89,1251.9 h -440.05" /><path
         id="path450"
         style="fill:#4364cc;fill-opacity:1;fill-rule:nonzero;stroke:none"
         d="M 4677.55,3065.1 4255.5,1719.4 c -11.25,-35.9 -30.03,-57.4 -50.11,-57.4 v 0 c -37.21,0 -65.6,71.8 -59.78,151.2 l 91.89,1251.9 h 440.05" /><path
         id="path452"
         style="fill:#4364cc;fill-opacity:1;fill-rule:nonzero;stroke:none"
         d="M 2670.02,3065.1 2247.98,1719.4 c -11.27,-35.9 -30.04,-57.4 -50.12,-57.4 v 0 c -37.21,0 -65.6,71.8 -59.78,151.2 l 91.88,1251.9 h 440.06" /><path
         id="path454"
         style="fill:#768fdb;fill-opacity:1;fill-rule:nonzero;stroke:none"
         d="m 5088.7,3015.6 h 3788.99 c 261.11,0 472.78,211.7 472.78,472.8 v 2403.4 c 0,203 -164.59,367.6 -367.61,367.6 H 5088.7 V 3015.6" /><path
         id="path456"
         style="fill:#4364cc;fill-opacity:1;fill-rule:nonzero;stroke:none"
         d="m 4144.85,3015.6 h 3788.99 c 261.11,0 472.78,211.7 472.78,472.8 v 2403.4 c 0,203 -164.59,367.6 -367.62,367.6 H 4144.85 V 3015.6" /><path
         id="path458"
         style="fill:#768fdb;fill-opacity:1;fill-rule:nonzero;stroke:none"
         d="m 3320.32,5439 h 3565.24 v 1679.3 c 0,200.9 -162.83,363.7 -363.68,363.7 H 3320.32 V 5439" /><path
         id="path460"
         style="fill:#95adf5;fill-opacity:1;fill-rule:nonzero;stroke:none"
         d="m 2982.05,5494.6 h 5001.86 c 238.06,0 431.04,-193 431.04,-431.1 v -497.1 h -5432.9 v 928.2" /><path
         id="path462"
         style="fill:#768fdb;fill-opacity:1;fill-rule:nonzero;stroke:none"
         d="m 2982.05,4674.2 h 5432.9 v -1661 h -5432.9 v 1661" /><path
         id="path464"
         style="fill:#4364cc;fill-opacity:1;fill-rule:nonzero;stroke:none"
         d="m 2227.29,5439 h 1093.03 v 2043 h -740.19 c -194.88,0 -352.84,-158 -352.84,-352.8 V 5439" /><path
         id="path466"
         style="fill:#f37a50;fill-opacity:1;fill-rule:nonzero;stroke:none"
         d="m 9363.27,3470.8 207.42,-290.1 c 0,0 185.27,-236.1 406.11,-125.3 220.8,110.9 123,465.6 123,465.6 l -253.78,334.1 -482.75,-384.3" /><path
         id="path468"
         style="fill:#2c2858;fill-opacity:1;fill-rule:nonzero;stroke:none"
         d="m 10091.1,3559.4 c 0,0 223,2.1 465.3,84.7 135.5,46.2 489.8,180.5 569.4,-61.9 11.8,-36.2 6.3,-86.8 -60.2,-163.9 -98.2,-113.8 -248.1,-239.1 -599.7,-348 -421.8,-130.6 -455.8,-205.3 -616.91,-245.1 -166.98,-41.3 -222.23,191.6 -286.79,380.8 v 0 c 29.45,-39.9 117.23,-138.3 430.94,-80.9 93.66,17.1 -173.63,311.5 97.96,434.3" /><path
         id="path470"
         style="fill:#f37a50;fill-opacity:1;fill-rule:nonzero;stroke:none"
         d="m 7606.58,2473.4 v -196.8 c 0,0 13.38,-299.8 257.51,-338.1 244.13,-38.2 370.79,307.3 370.79,307.3 l -8.95,309.9 -619.35,-82.3" /><path
         id="path472"
         style="fill:#201d40;fill-opacity:1;fill-rule:nonzero;stroke:none"
         d="m 6890.22,7154.9 c -115.98,27 -449.34,-345.9 -437.01,-385.7 307.29,-418.6 1305.21,-653.5 1305.21,-653.5 l 162.52,106 c 0,0 -586.95,446.2 -1030.72,933.2" /><path
         id="path474"
         style="fill:#201d40;fill-opacity:1;fill-rule:nonzero;stroke:none"
         d="m 6020.96,8332.5 c 35.06,-345.8 324.96,-1497.8 432.25,-1563.3 l 437.01,385.7 c 0,0 -297.4,1210.2 -347.07,1398 -85.25,325.4 -580.5,344 -522.19,-220.4" /><path
         id="path476"
         style="fill:#2c2858;fill-opacity:1;fill-rule:nonzero;stroke:none"
         d="m 7139.28,10242.4 c 31.82,433.2 -93.43,816 -438.87,1010.9 -350.13,197.6 -788.75,3.8 -788.75,3.8 v 0 c -0.03,0 -371.26,132.1 -707.71,-238.5 -336.47,-370.7 -81.96,-696.8 -219.61,-967.1 -81.52,-160.1 -495.99,-193.1 -388.93,-714.5 30.89,-150.4 211.74,-251.6 364.91,-261.6 269.13,-17.7 519.76,86.3 628.85,-17.7 359.5,-342.9 1156.18,-218.9 1267.67,94.7 34.57,97.3 751.22,-90.9 679.71,571.4 -36.23,335.6 -425.7,131.5 -397.27,518.6" /><path
         id="path478"
         style="fill:#f37a50;fill-opacity:1;fill-rule:nonzero;stroke:none"
         d="m 6287.03,9381.9 c 0,0 -46.51,-426 -61.36,-583.1 l -573.54,-16.9 c 175.23,271.3 96.22,1044.7 96.22,1044.7 l 538.68,-444.7" /><path
         id="path480"
         style="fill:#f37a50;fill-opacity:1;fill-rule:nonzero;stroke:none"
         d="m 5449.36,9926.7 c 119.26,-498.1 533.09,-826 924.3,-732.3 391.21,93.6 611.67,573.4 492.4,1071.5 -119.26,498.1 -533.09,825.9 -924.3,732.3 -391.22,-93.7 -611.66,-573.4 -492.4,-1071.5" /><path
         id="path482"
         style="fill:#000000;fill-opacity:1;fill-rule:nonzero;stroke:none"
         d="m 6682.73,10135 c 17.22,-34.5 59.22,-48.6 93.81,-31.4 34.58,17.2 48.66,59.2 31.43,93.8 -17.23,34.6 -59.23,48.7 -93.81,31.5 -34.58,-17.3 -48.66,-59.3 -31.43,-93.9" /><path
         id="path484"
         style="fill:#000000;fill-opacity:1;fill-rule:nonzero;stroke:none"
         d="m 6133.25,9999.5 c 18.65,-37.5 64.11,-52.7 101.54,-34.1 37.45,18.7 52.68,64.2 34.04,101.6 -18.65,37.4 -64.12,52.7 -101.55,34 -37.45,-18.6 -52.67,-64.1 -34.03,-101.5" /><path
         id="path486"
         style="fill:#2c2858;fill-opacity:1;fill-rule:nonzero;stroke:none"
         d="m 6049.52,10062.2 c 5.17,2.6 9.52,6.9 12.14,12.5 37.95,81.9 140.5,97.8 141.52,98 14.36,2.1 24.35,15.4 22.27,29.8 -2.07,14.4 -15.33,24.4 -29.71,22.3 -5.35,-0.7 -131.73,-19.7 -181.87,-128 -6.12,-13.2 -0.37,-28.8 12.83,-34.9 7.55,-3.5 15.91,-3.1 22.82,0.3" /><path
         id="path488"
         style="fill:#2c2858;fill-opacity:1;fill-rule:nonzero;stroke:none"
         d="m 6835.31,10236.4 c 2.52,1.3 4.9,3 6.98,5.1 10.23,10.4 10.13,27 -0.21,37.3 -80.34,79.3 -179.36,46.4 -183.53,45 -13.72,-4.8 -21.05,-19.8 -16.3,-33.5 4.72,-13.7 19.64,-21 33.36,-16.4 3.25,1.1 72.94,23.2 129.45,-32.6 8.22,-8.1 20.45,-9.8 30.25,-4.9" /><path
         id="path490"
         style="fill:#de623c;fill-opacity:1;fill-rule:nonzero;stroke:none"
         d="m 6637.74,9982.9 c 38.38,-39.5 72.05,-80.2 108.7,-103.3 12.35,-7.8 16.3,-24.2 9.14,-36.9 -29.61,-52.5 -116.05,-95.7 -169.05,-118.2 -7.72,-3.3 -14.08,6.8 -7.75,12.3 53.49,47 76.46,81.5 86.12,100.5 4.8,9.4 4.67,20.5 -0.11,29.9 -10.96,21.7 -32.8,65.9 -47.58,102.5 -5.1,12.6 11.03,23 20.53,13.2" /><path
         id="path492"
         style="fill:#f37a50;fill-opacity:1;fill-rule:nonzero;stroke:none"
         d="m 5637.62,9923.5 c 95.05,-74 123.04,-197 62.53,-274.8 -60.53,-77.8 -186.65,-80.9 -281.71,-6.9 -95.07,73.9 -123.07,197 -62.53,274.7 60.52,77.8 186.65,80.9 281.71,7" /><path
         id="path494"
         style="fill:#de623c;fill-opacity:1;fill-rule:nonzero;stroke:none"
         d="m 5583.5,9671.3 c 3.54,1.8 6.74,4.4 9.28,7.7 36.51,48.6 39.93,103.2 9.18,146 -31.48,43.9 -89.96,63.9 -139.02,47.7 -13.82,-4.5 -21.31,-19.4 -16.74,-33.2 4.55,-13.8 19.45,-21.3 33.26,-16.8 26.89,8.9 61.9,-3.6 79.71,-28.4 17.13,-23.9 14.11,-53.5 -8.49,-83.6 -8.74,-11.6 -6.39,-28.1 5.23,-36.9 8.25,-6.2 18.94,-6.8 27.59,-2.5" /><path
         id="path496"
         style="fill:#de623c;fill-opacity:1;fill-rule:nonzero;stroke:none"
         d="m 6450.66,9448.6 c -190.4,0 -269.91,118.3 -274.01,124.6 -8.74,13.5 -4.91,31.5 8.56,40.2 13.42,8.7 31.35,4.9 40.12,-8.4 4.48,-6.7 108.32,-156.3 379.73,-72.8 15.35,4.7 31.61,-3.9 36.34,-19.2 4.71,-15.4 -3.9,-31.7 -19.25,-36.4 -65.06,-20 -122.02,-28 -171.49,-28" /><path
         id="path498"
         style="fill:#2c2858;fill-opacity:1;fill-rule:nonzero;stroke:none"
         d="m 5439.7,9970.7 c 466.96,62.6 1120.31,538.3 1173.9,782.4 -90.32,293.3 -571.55,440.7 -843.28,304.8 -271.72,-135.8 -528.41,-718.1 -330.62,-1087.2" /><path
         id="path500"
         style="fill:#3f964f;fill-opacity:1;fill-rule:nonzero;stroke:none"
         d="m 5842.49,5305.4 2369.21,101.2 c 0,0 116.88,591.4 28.96,825.8 -87.92,234.4 -2264.7,186.1 -2264.7,186.1 L 5842.49,5305.4" /><path
         id="path502"
         style="fill:#0e6a41;fill-opacity:1;fill-rule:nonzero;stroke:none"
         d="m 5145.69,6823.7 c -64.2,-148.4 -314.4,-589.9 -290.24,-947.9 24.94,-369.5 285.61,-691.1 726.8,-684.1 0,0 831.53,472.6 651.54,1440.9 0,0 -435.31,170 -1088.1,191.1" /><path
         id="path504"
         style="fill:#0e6a41;fill-opacity:1;fill-rule:nonzero;stroke:none"
         d="m 5516.5,5107.3 2086.95,-196.8 c 0,0 715.89,302.1 711.81,558.6 -4.07,256.6 -2106.85,958.6 -2106.85,958.6 C 4975.13,6787.4 4564,5256.7 5516.5,5107.3" /><path
         id="path506"
         style="fill:#0e6a41;fill-opacity:1;fill-rule:nonzero;stroke:none"
         d="m 8315.26,5469.1 -41.84,-2943.7 c 0,0 -520.97,-219.6 -703.54,-1.7 -86.16,999.1 -496.42,1884.2 -38.41,2493.3 613.45,815.7 783.79,452.1 783.79,452.1" /><path
         id="path508"
         style="fill:#3f964f;fill-opacity:1;fill-rule:nonzero;stroke:none"
         d="m 8235.64,6239.3 1736.68,-2385 c 0,0 -387.61,-518.1 -658.27,-457.4 -466.95,590.9 -1411.86,1283.7 -1417.9,2027.3 -8.07,995.9 339.49,815.1 339.49,815.1" /><path
         id="path510"
         style="fill:#f37a50;fill-opacity:1;fill-rule:nonzero;stroke:none"
         d="m 6480.59,5693.3 c -142.55,33.2 -336.25,47.9 -315.29,120.9 20.97,73.1 100.61,83.8 129.39,170.7 25.52,77.1 -243.86,116 -469.51,-106.8 l -22.33,26.1 -163.19,-228.7 28.9,-21.8 c 110.74,-215.9 546.41,-411.1 846.55,-329 303.91,83.2 108.02,335.5 -34.52,368.6" /><path
         id="path512"
         style="fill:#2c2858;fill-opacity:1;fill-rule:nonzero;stroke:none"
         d="m 5726.72,8982 507.95,-92.3 c 193.71,-362.9 407.52,-725.1 408.02,-943.6 0.66,-287.5 -393.92,-1478.6 -393.92,-1478.6 -519.2,-68.4 -942.1,-2.8 -1262.72,205.3 250.39,708.1 -177.13,1582.4 286.69,2060.2 115.76,119.2 300.96,172.1 453.98,249" /><path
         id="path514"
         style="fill:#f37a50;fill-opacity:1;fill-rule:nonzero;stroke:none"
         d="m 8021.88,6209 c -5.56,7.3 -10.36,10.5 -11.92,18.5 0,0 -4.01,-0.8 -3.22,-4.8 -55.55,-56.6 -136.51,-68.2 -173.95,-25.5 -5.56,7.2 -11.14,14.4 -16.72,21.7 -45.76,-21.4 -96.21,-18.8 -122.5,9.4 -10.36,10.4 -17.5,25.7 -20.62,41.7 -44.97,-25.4 -95.43,-22.7 -131.3,11.9 -41.45,41.9 -34.69,113.9 14.4,160.9 49.1,47 118.8,52.3 159.48,14.5 10.35,-10.5 16.71,-21.8 19.83,-37.8 53.89,43.8 123.6,49.1 159.46,14.4 5.58,-7.2 11.16,-14.4 16.72,-21.7 45.76,21.4 96.21,18.8 122.51,-9.4 10.36,-10.4 17.49,-25.7 19.85,-37.7 36.96,23.8 87.41,21.2 113.7,-7 35.88,-34.6 26.77,-94.6 -11.08,-135.3 -37.84,-40.7 -99.54,-44.4 -134.64,-13.8" /><path
         id="path516"
         style="fill:#201d40;fill-opacity:1;fill-rule:nonzero;stroke:none"
         d="M 5119.59,8548 C 4874.82,8166.7 4056.74,7338.7 4131.65,6804.1 4184.1,6429.9 5607.15,5613.6 5607.15,5613.6 l 209.26,310.7 -919.33,1065 c 0,0 804.54,1132.6 903.23,1354.6 172.6,388.1 -295.82,803.8 -680.72,204.1" /><path
         id="path518"
         style="fill:#2c2858;fill-opacity:1;fill-rule:nonzero;stroke:none"
         d="m 8250.19,2282 c 0,0 182.63,-128 427.72,-201.7 137.11,-41.3 503.46,-138 427.18,-381.5 -11.39,-36.3 -45.35,-74.3 -144.26,-98.3 -146.07,-35.5 -340.88,-50.2 -690.23,65.7 -419.09,139 -490.19,98 -644.41,159.3 -159.84,63.5 -69.33,285.2 -11.79,476.6 v 0 c 0.73,-49.6 14.94,-180.6 303.5,-316.4 86.14,-40.6 39.9,354.3 332.29,296.3" /><path
         id="path520"
         style="fill:#768fdb;fill-opacity:1;fill-rule:nonzero;stroke:none"
         d="m 3171.13,3015.6 h 2261.81 c 261.1,0 472.78,211.7 472.78,472.8 v 2403.4 c 0,203 -164.59,367.6 -367.61,367.6 H 3171.13 V 3015.6" /><path
         id="path522"
         style="fill:#4364cc;fill-opacity:1;fill-rule:nonzero;stroke:none"
         d="m 2227.29,3015.6 h 2261.79 c 261.12,0 472.79,211.7 472.79,472.8 v 2403.4 c 0,203 -164.59,367.6 -367.62,367.6 H 2227.29 V 3015.6" /><g
         transform="scale(1.1748)"
         id="g524"
         style="fill:#ffc00c;fill-opacity:1"><path
           id="path526"
           style="fill:#ffc00c;fill-opacity:1;fill-rule:nonzero;stroke:none"
           d="m 13078.9,11738.9 h 2631.3 c 325.8,0 589.8,-264 589.8,-589.7 V 9922.56 c 0,-325.7 -264,-589.73 -589.8,-589.73 h -19.5 l 211.2,-707.49 c 9.3,-31.13 -26.7,-55.96 -52.4,-36.26 l -975,743.75 h -1795.6 c -325.6,0 -589.7,264.03 -589.7,589.73 v 1226.64 c 0,325.7 264.1,589.7 589.7,589.7" /></g><g
         transform="scale(1.15325)"
         id="g528"><path
           id="path530"
           style="fill:#ffffff;fill-opacity:1;fill-rule:nonzero;stroke:none"
           d="m 16002.7,10909.1 h -2573.5 c -164.2,0 -297.4,133.1 -297.4,297.4 v 0 c 0,164.2 133.2,297.3 297.4,297.3 h 2573.5 c 164.2,0 297.3,-133.1 297.3,-297.3 v 0 c 0,-164.3 -133.1,-297.4 -297.3,-297.4" /></g><g
         transform="scale(1.15325)"
         id="g532"><path
           id="path534"
           style="fill:#ffffff;fill-opacity:1;fill-rule:nonzero;stroke:none"
           d="m 16002.7,10001 h -2573.5 c -164.2,0 -297.4,133.1 -297.4,297.3 v 0 c 0,164.3 133.2,297.4 297.4,297.4 h 2573.5 c 164.2,0 297.3,-133.1 297.3,-297.4 v 0 c 0,-164.2 -133.1,-297.3 -297.3,-297.3" /></g><g
         transform="scale(1.81955)"
         id="g536"
         style="fill:#ffc00c;fill-opacity:1"><path
           id="path538"
           style="fill:#ffc00c;fill-opacity:1;fill-rule:nonzero;stroke:none"
           d="m 15948,7469.27 h -1570.5 c -194.3,0 -351.9,-157.59 -351.9,-351.98 v -732.11 c 0,-194.39 157.6,-351.99 351.9,-351.99 h 11.7 l -126,-422.27 c -5.6,-18.57 15.9,-33.4 31.3,-21.64 l 581.8,443.91 H 15948 c 194.4,0 352,157.6 352,351.99 v 732.11 c 0,194.39 -157.6,351.98 -352,351.98" /></g><g
         transform="scale(1.79463)"
         id="g540"><path
           id="path542"
           style="fill:#ffffff;fill-opacity:1;fill-rule:nonzero;stroke:none"
           d="m 16156.1,6945.63 h -1603.3 c -79.5,0 -143.9,64.46 -143.9,143.97 v 36.01 c 0,79.51 64.4,143.97 143.9,143.97 h 1603.3 c 79.5,0 143.9,-64.46 143.9,-143.97 v -36.01 c 0,-79.51 -64.4,-143.97 -143.9,-143.97" /></g><g
         transform="scale(1.71045)"
         id="g544"><path
           id="path546"
           style="fill:#ffffff;fill-opacity:1;fill-rule:nonzero;stroke:none"
           d="m 16130,6773.56 h -787.6 c -93.9,0 -170,76.08 -170,169.94 v 0 c 0,93.87 76.1,169.95 170,169.95 h 787.6 c 93.9,0 170,-76.08 170,-169.95 v 0 c 0,-93.86 -76.1,-169.94 -170,-169.94" /></g><g
         transform="scale(1.32793)"
         id="g548"
         style="fill:#ffc00c;fill-opacity:1"><path
           id="path550"
           style="fill:#ffc00c;fill-opacity:1;fill-rule:nonzero;stroke:none"
           d="m 15817.7,13409.2 h -2151.9 c -266.3,0 -482.3,-215.9 -482.3,-482.2 v -1003.2 c 0,-266.4 216,-482.3 482.3,-482.3 h 16 l -172.8,-578.6 c -7.5,-25.4 21.9,-45.7 43,-29.6 l 797.3,608.2 h 1468.4 c 266.4,0 482.3,215.9 482.3,482.3 V 12927 c 0,266.3 -215.9,482.2 -482.3,482.2" /></g><g
         transform="scale(1.25014)"
         id="g552"><path
           id="path554"
           style="fill:#ffffff;fill-opacity:1;fill-rule:nonzero;stroke:none"
           d="m 16067.5,13343 h -1560.4 c -128.5,0 -232.6,104.2 -232.6,232.6 v 0 c 0,128.4 104.1,232.5 232.6,232.5 h 1560.4 c 128.4,0 232.5,-104.1 232.5,-232.5 v 0 c 0,-128.4 -104.1,-232.6 -232.5,-232.6" /></g><g
         transform="scale(1.31006)"
         id="g556"><path
           id="path558"
           style="fill:#ffffff;fill-opacity:1;fill-rule:nonzero;stroke:none"
           d="m 16078.1,12061.9 h -2163.4 c -122.6,0 -221.9,99.3 -221.9,221.9 v 0 c 0,122.5 99.3,221.8 221.9,221.8 h 2163.4 c 122.6,0 221.9,-99.3 221.9,-221.8 v 0 c 0,-122.6 -99.3,-221.9 -221.9,-221.9" /></g><path
         id="path560"
         style="fill:#ffc00c;fill-opacity:1;fill-rule:nonzero;stroke:none"
         d="m 6540.34,15742.3 h 3749.26 c 464.1,0 840.3,-376.2 840.3,-840.2 v -1747.8 c 0,-464.1 -376.2,-840.3 -840.3,-840.3 h -27.9 l 301,-1008.1 c 13.2,-44.3 -38,-79.7 -74.8,-51.7 L 9098.74,12314 h -2558.4 c -464.08,0 -840.3,376.2 -840.3,840.3 v 1747.8 c 0,464 376.22,840.2 840.3,840.2" /><path
         id="path562"
         style="fill:#ffffff;fill-opacity:1;fill-rule:nonzero;stroke:none"
         d="m 6571.97,14265.2 h 3774.93 c 187.3,0 339,151.7 339,339 v 84.7 c 0,187.3 -151.7,339 -339,339 H 6571.97 c -187.21,0 -339,-151.7 -339,-339 v -84.7 c 0,-187.3 151.79,-339 339,-339" /><path
         id="path564"
         style="fill:#ffffff;fill-opacity:1;fill-rule:nonzero;stroke:none"
         d="m 8414.67,13111.9 h 1767.73 c 210.6,0 381.4,170.8 381.4,381.4 v 0 c 0,210.6 -170.8,381.4 -381.4,381.4 H 8414.67 c -210.64,0 -381.39,-170.8 -381.39,-381.4 v 0 c 0,-210.6 170.75,-381.4 381.39,-381.4" /><g
         transform="scale(1.55023)"
         id="g568"><path
           id="path570"
           style="fill:#ffffff;fill-opacity:1;fill-rule:nonzero;stroke:none"
           d="m 15865.4,9941.95 c -173.7,0 -315,-141.27 -315,-314.92 0,-173.66 141.3,-314.93 315,-314.93 173.6,0 314.9,141.27 314.9,314.93 0,173.65 -141.3,314.92 -314.9,314.92 z m 0,-749.56 c -239.7,0 -434.7,194.98 -434.7,434.64 0,239.65 195,434.67 434.7,434.67 239.6,0 434.6,-195.02 434.6,-434.67 0,-239.66 -195,-434.64 -434.6,-434.64" /></g><path
         id="path572"
         style="fill:#ffffff;fill-opacity:1;fill-rule:nonzero;stroke:none"
         d="m 10981.9,15801.7 c -177.1,0 -321.1,-144 -321.1,-321.1 0,-177 144,-321.1 321.1,-321.1 177,0 321,144.1 321,321.1 0,177.1 -144,321.1 -321,321.1 z m 0,-764.2 c -244.4,0 -443.2,198.8 -443.2,443.1 0,244.4 198.8,443.2 443.2,443.2 244.3,0 443.1,-198.8 443.1,-443.2 0,-244.3 -198.8,-443.1 -443.1,-443.1" /><g
         transform="scale(1.13641)"
         id="g574"><path
           id="path576"
           style="fill:#ffffff;fill-opacity:1;fill-rule:nonzero;stroke:none"
           d="m 8072.82,16216 c -121.87,0 -221.03,-99.2 -221.03,-221.1 0,-121.8 99.16,-221 221.03,-221 121.89,0 221.04,99.2 221.04,221 0,121.9 -99.15,221.1 -221.04,221.1 z m 0,-526.1 c -168.21,0 -305.05,136.8 -305.05,305 0,168.2 136.84,305.1 305.05,305.1 168.22,0 305.07,-136.9 305.07,-305.1 0,-168.2 -136.85,-305 -305.07,-305" /></g><g
         style="fill:#ffffff;fill-opacity:1"
         transform="scale(1.15015)"
         id="g578"><path
           id="path580"
           style="fill:#ffffff;fill-opacity:1;fill-rule:nonzero;stroke:none"
           d="m 13946.7,15887.8 c 0,-227.6 -184.5,-412.1 -412.2,-412.1 -227.6,0 -412.2,184.5 -412.2,412.1 0,227.7 184.6,412.2 412.2,412.2 227.7,0 412.2,-184.5 412.2,-412.2" /></g><g
         transform="scale(1.57931)"
         id="g582"><path
           id="path584"
           style="fill:#ffffff;fill-opacity:1;fill-rule:nonzero;stroke:none"
           d="m 16300,10404.1 c 0,-165.8 -134.4,-300.2 -300.1,-300.2 -165.8,0 -300.2,134.4 -300.2,300.2 0,165.7 134.4,300.1 300.2,300.1 165.7,0 300.1,-134.4 300.1,-300.1" /></g><g
         transform="scale(1.09935)"
         id="g586"><path
           id="path588"
           style="fill:#ffffff;fill-opacity:1;fill-rule:nonzero;stroke:none"
           d="m 7956.91,15868.8 c 0,-238.1 -193.06,-431.2 -431.19,-431.2 -238.14,0 -431.21,193.1 -431.21,431.2 0,238.1 193.07,431.2 431.21,431.2 238.13,0 431.19,-193.1 431.19,-431.2" /></g><path
         id="path590"
         style="fill:#ffffff;fill-opacity:1;fill-rule:nonzero;stroke:none"
         d="m 5982.43,12864.8 c -156.81,-156.8 -411.04,-156.8 -567.85,0 -156.81,156.8 -156.81,411 0,567.9 156.81,156.7 411.04,156.7 567.85,0 156.81,-156.9 156.81,-411.1 0,-567.9" /><path
         id="path592"
         style="fill:#ffffff;fill-opacity:1;fill-rule:nonzero;stroke:none"
         d="m 2788.35,10948.7 c 0,-212.5 -172.23,-384.7 -384.69,-384.7 -212.45,0 -384.68,172.2 -384.68,384.7 0,212.4 172.23,384.7 384.68,384.7 212.46,0 384.69,-172.3 384.69,-384.7" /><g
         transform="scale(1.41991)"
         id="g594"><path
           id="path596"
           style="fill:#e86686;fill-opacity:1;fill-rule:nonzero;stroke:none"
           d="m 15530.5,6235.8 c 27.3,-170.72 366.1,-1085.35 594.5,-1181.69 128.6,98.74 175,464.82 135.6,617.57 -122.9,255.51 -563.2,720.96 -563.2,720.96 l -166.9,-156.84" /></g><g
         transform="scale(1.37019)"
         id="g598"><path
           id="path600"
           style="fill:#e8660f;fill-opacity:1;fill-rule:nonzero;stroke:none"
           d="m 16071.8,6884.3 c 63.1,-22.26 145,-87.07 205.3,-255.15 22.9,-91.96 -176.9,-184.13 -176.9,-184.13 l -72.7,374.98 44.3,64.3" /></g><g
         transform="scale(1.36919)"
         id="g602"><path
           id="path604"
           style="fill:#ffffff;fill-opacity:1;fill-rule:nonzero;stroke:none"
           d="m 15977.8,6191.54 c -25.7,-3.28 -49.5,8.4 -59,29.07 -7.8,16.95 -5,37.25 7.3,53.83 l -285.9,564.05 -0.3,0.59 c -10.7,23.22 -11.8,49.23 -3.4,75.3 1.6,4.75 3.4,9.57 5.6,14.17 15.7,33.81 17,72.3 3.5,105.61 l -107.1,263.66 c -14.3,5.18 -19.8,18.86 -22.8,26.41 -0.8,1.9 -1.5,3.7 -2.3,5.45 l -3.4,7.28 c -6.2,13.71 -8.2,25.65 -5.9,36.41 -1.1,2.2 -2.1,4.35 -2.9,6.08 -3.4,7.27 -6.6,15.08 -6.7,23.66 -0.1,12.6 6.9,23.08 19.3,28.79 l 119.9,55.26 c 3.6,1.69 7.4,2.78 11,3.24 8.4,1.07 16.4,-1.11 23.2,-6.28 7.4,-5.77 12,-14.21 15,-20.92 1.7,-3.65 3,-6.95 4,-10.04 9,-5.42 16.4,-13.96 21.4,-24.84 l 4.2,-9 c 4.1,-8.88 10.2,-22.05 5.2,-36.55 l 130.4,-257.03 c 16,-31.55 45.5,-55.14 80.7,-64.78 32.2,-8.84 56.9,-28.92 69.6,-56.6 0.1,-0.15 0.1,-0.22 252.7,-585.75 16.4,-3.72 29.8,-14.09 36.3,-28.12 12.6,-27.24 -3,-61.28 -34.6,-75.88 l -253.9,-117.01 c -6.7,-3.06 -13.8,-5.18 -21.1,-6.06" /></g><g
         transform="scale(1.36976)"
         id="g606"><path
           id="path608"
           style="fill:#3e438c;fill-opacity:1;fill-rule:nonzero;stroke:none"
           d="m 15637.5,7493.21 c -4.3,-0.54 -8.6,-1.79 -12.8,-3.74 l -119.9,-55.24 c -14.6,-6.73 -22.9,-19.21 -22.8,-34.26 0.1,-9.76 3.8,-18.59 7.3,-26.1 0.6,-1.3 1.3,-2.83 2.2,-4.45 -2,-11.48 0.2,-23.97 6.7,-38.02 l 3.3,-7.27 c 0.8,-1.57 1.4,-3.33 2.2,-5.18 3.2,-8.03 8.9,-22.2 23.8,-28.77 l 106,-261.22 c 12.9,-31.75 11.7,-68.48 -3.3,-100.74 -2.3,-4.89 -4.3,-9.86 -5.9,-14.9 -8.9,-27.52 -7.6,-55.04 3.7,-79.57 0.1,-0.22 0.2,-0.51 0.3,-0.81 l 216.6,-427.3 67.6,-133.3 c -11.7,-17.74 -14,-38.92 -5.7,-56.8 10.6,-23.07 36.8,-36.14 65.1,-32.49 7.9,0.95 15.6,3.21 22.9,6.57 l 253.8,116.96 c 34.6,15.91 51.4,53.51 37.5,83.73 -6.9,14.9 -20.6,25.99 -37.4,30.66 -251.4,582.73 -251.4,582.73 -251.5,583.03 -13.5,29.27 -39.6,50.52 -73.4,59.79 -33.7,9.2 -61.7,31.68 -76.9,61.69 l -129.3,254.76 c 4.3,15.75 -2.2,29.78 -6.2,38.52 l -4.2,8.97 c -5.2,11.2 -12.6,20.19 -21.8,26.24 -1,2.7 -2.2,5.57 -3.5,8.63 -3.5,7.34 -8.4,16.6 -17,23.14 -7.9,6.14 -17.4,8.74 -27.4,7.47 z m 1.5,-11.86 c 6.7,0.85 13.1,-0.86 18.7,-5.1 6.4,-4.94 10.4,-12.58 13.3,-18.66 2,-4.3 3.3,-8.07 4.3,-11.54 8.8,-4.66 16.1,-12.71 21,-23.32 l 4.2,-9.01 c 4.3,-9.2 9.9,-21.26 4.1,-34.35 l 131.6,-259.29 c 17.2,-33.73 48,-57.9 84.4,-67.83 29.6,-8.1 53.5,-26.79 65.8,-53.36 0,-0.08 253.7,-588.28 253.7,-588.28 15.9,-2.63 28.9,-11.9 35.1,-25.26 11.1,-24.31 -3,-54.75 -31.6,-67.9 l -253.8,-116.95 c -6.4,-2.92 -12.9,-4.75 -19.3,-5.62 -22.7,-2.85 -44.1,6.79 -52.9,25.62 -7.4,16.21 -3.8,35.48 8.9,50.67 l -70.9,139.88 -216.6,427.3 c -0.1,0.14 -0.1,0.29 -0.2,0.43 -10,21.76 -11.1,46.29 -3.1,70.82 1.5,4.6 3.2,9.13 5.3,13.51 16.3,34.89 18.1,74.76 3.6,110.38 l -108.1,266.1 c -13.6,3.56 -18.5,15.89 -21.7,23.82 -0.8,2 -1.6,3.88 -2.5,5.72 l -3.2,7.28 c -6.2,13.32 -7.9,24.77 -5,34.69 -1.5,2.54 -2.7,5.19 -3.9,7.79 -3.1,6.66 -6.1,13.79 -6.2,21.19 -0.1,10.28 5.6,18.55 15.9,23.28 l 119.8,55.25 c 3.1,1.44 6.2,2.35 9.3,2.74 v 0" /></g><g
         transform="scale(1.36737)"
         id="g610"><path
           id="path612"
           style="fill:#ffa823;fill-opacity:1;fill-rule:nonzero;stroke:none"
           d="m 15806.5,7214.66 46.9,-91.19 c 18,-35.04 50,-61.29 88.2,-70.65 27.2,-6.58 49.6,-22.89 60.8,-47.17 l 257,-595.89 c 14.3,-0.22 26.9,-6.95 32.4,-18.72 8.2,-17.92 -3,-40.67 -25.2,-50.9 l -254.2,-117.16 c -22.1,-10.24 -46.8,-3.95 -55,13.89 -6.5,14.19 -0.8,31.38 12.8,43 l -75.2,148.25 -147.5,290.99 -69.4,137.13 c -11.2,24.28 -9,52 3.7,77.01 17.4,34.29 20,74.23 5.9,109.99 l -61.3,153.87 c 30,-2.7 60.7,-27.42 91.5,-17.4 30.2,9.72 58.8,68.81 88.6,34.95" /></g><g
         transform="scale(1.33982)"
         id="g614"><path
           id="path616"
           style="fill:#ffffff;fill-opacity:1;fill-rule:nonzero;stroke:none"
           d="m 16261.3,7111.32 c 3.2,-7.09 11.8,-10.15 19.1,-6.79 7.4,3.35 10.6,11.86 7.3,18.95 -3.2,7.09 -11.9,10.15 -19.1,6.8 -7.3,-3.36 -10.6,-11.87 -7.3,-18.96 z m 15.8,-15.9 c -9.4,-1.19 -18.9,3.66 -23,12.54 v 0 c -5.2,11.12 -0.2,24.33 11.1,29.55 11.3,5.16 24.6,0.38 29.7,-10.67 5.1,-11.12 0.1,-24.33 -11.2,-29.48 -2.1,-1.04 -4.4,-1.64 -6.6,-1.94" /></g><g
         transform="scale(1.36067)"
         id="g618"><path
           id="path620"
           style="fill:#ffffff;fill-opacity:1;fill-rule:nonzero;stroke:none"
           d="m 16268.2,6437.13 c -2.2,-0.3 -4.4,-0.88 -6.3,-1.84 -5.2,-2.35 -9.1,-6.54 -11.1,-11.68 -2,-5.22 -1.7,-10.73 0.5,-15.73 2.3,-4.92 6.4,-8.67 11.7,-10.58 5.2,-1.84 10.9,-1.55 16,0.8 5.1,2.36 9,6.47 11,11.69 1.9,5.15 1.8,10.73 -0.5,15.66 -2.3,4.99 -6.4,8.74 -11.6,10.58 -3.2,1.1 -6.5,1.47 -9.7,1.1 z m 5.4,-48.65 c -4.4,-0.52 -8.9,-0.08 -13.3,1.47 -7.2,2.57 -12.9,7.79 -16.1,14.7 -3.1,6.83 -3.4,14.55 -0.6,21.75 2.7,7.06 8,12.79 15,15.95 6.9,3.23 14.7,3.6 21.9,1.03 7.2,-2.58 12.9,-7.79 16,-14.63 3.3,-6.91 3.5,-14.62 0.8,-21.75 -2.7,-7.13 -8.1,-12.79 -15.1,-16.02 -2.7,-1.25 -5.6,-2.13 -8.6,-2.5" /></g><g
         transform="scale(1.34146)"
         id="g622"><path
           id="path624"
           style="fill:#ffffff;fill-opacity:1;fill-rule:nonzero;stroke:none"
           d="m 16250.7,6574.7 c 4.8,-10.36 17.3,-14.83 28,-9.91 5.2,2.38 9.1,6.56 11.2,11.85 2,5.22 1.8,10.88 -0.6,15.88 -4.7,10.44 -17.3,14.91 -28,9.99 -10.6,-4.92 -15.4,-17.37 -10.6,-27.81 z m 22.7,-19.61 c -12.3,-1.56 -24.6,4.7 -29.9,16.33 v 0 c -6.6,14.39 -0.2,31.54 14.5,38.32 14.6,6.71 31.9,0.52 38.6,-13.87 3.2,-7.01 3.4,-14.83 0.6,-22.06 -2.6,-7.23 -8.1,-12.97 -15.2,-16.26 -2.8,-1.26 -5.7,-2.08 -8.6,-2.46" /></g><g
         transform="scale(1.35274)"
         id="g626"><path
           id="path628"
           style="fill:#ffffff;fill-opacity:1;fill-rule:nonzero;stroke:none"
           d="m 16272.7,6524.97 c -1.5,-0.15 -3,-0.59 -4.5,-1.26 -3.5,-1.7 -6.3,-4.58 -7.7,-8.28 -1.4,-3.62 -1.3,-7.54 0.3,-11.01 3.3,-7.25 12.1,-10.35 19.5,-6.95 7.4,3.47 10.8,12.12 7.4,19.37 -1.6,3.47 -4.5,6.13 -8.1,7.39 -2.3,0.81 -4.6,1.03 -6.9,0.74 z m 4.2,-36.52 c -9.5,-1.26 -19,3.62 -23.2,12.64 -2.5,5.47 -2.7,11.53 -0.6,17.15 2.2,5.62 6.4,10.06 11.9,12.64 5.4,2.52 11.6,2.81 17.2,0.74 5.7,-1.99 10.2,-6.13 12.7,-11.53 5.1,-11.16 0.1,-24.47 -11.3,-29.72 -2.2,-1.03 -4.4,-1.62 -6.7,-1.92" /></g><g
         transform="scale(1.35354)"
         id="g630"><path
           id="path632"
           style="fill:#ffffff;fill-opacity:1;fill-rule:nonzero;stroke:none"
           d="m 16278.9,6679.15 c -1.1,-0.14 -2.3,-0.44 -3.4,-0.96 -2.8,-1.25 -5,-3.54 -6,-6.35 -1.1,-2.88 -1,-5.84 0.2,-8.57 v 0 c 1.3,-2.66 3.5,-4.73 6.4,-5.76 2.8,-0.96 5.9,-0.82 8.7,0.44 2.8,1.33 4.9,3.55 6,6.43 1.1,2.81 1,5.83 -0.3,8.49 -2,4.51 -6.8,6.95 -11.6,6.28 z m 3.4,-29.99 c -3,-0.37 -6,-0.08 -8.9,0.96 -4.9,1.77 -8.7,5.24 -10.8,9.9 -2.1,4.58 -2.3,9.75 -0.5,14.55 1.8,4.81 5.4,8.57 10,10.79 9.7,4.43 21.2,0.3 25.6,-9.16 2.1,-4.66 2.3,-9.83 0.5,-14.63 -1.9,-4.8 -5.4,-8.57 -10.1,-10.71 -1.8,-0.89 -3.8,-1.48 -5.8,-1.7" /></g><g
         transform="scale(1.35039)"
         id="g634"><path
           id="path636"
           style="fill:#ffffff;fill-opacity:1;fill-rule:nonzero;stroke:none"
           d="m 16278.9,6724.52 c -1.2,-0.22 -2.4,-0.52 -3.5,-1.04 -2.8,-1.26 -4.9,-3.55 -6,-6.37 -1.1,-2.88 -0.9,-5.85 0.2,-8.59 2.6,-5.55 9.4,-7.99 15.1,-5.33 2.9,1.33 5,3.56 6.1,6.45 1.1,2.81 1,5.84 -0.3,8.51 -1.2,2.67 -3.5,4.74 -6.3,5.78 -1.7,0.59 -3.5,0.74 -5.3,0.59 z m 3.4,-30.14 c -8.1,-1.04 -16.2,3.18 -19.8,10.88 -2.1,4.6 -2.3,9.78 -0.5,14.59 1.9,4.82 5.4,8.59 10.2,10.82 4.6,2.14 9.9,2.36 14.7,0.66 4.8,-1.78 8.7,-5.26 10.8,-9.85 2.2,-4.66 2.3,-9.85 0.4,-14.66 -1.8,-4.81 -5.4,-8.59 -10,-10.74 -1.9,-0.88 -3.9,-1.4 -5.8,-1.7" /></g><g
         transform="scale(1.32285)"
         id="g638"><path
           id="path640"
           style="fill:#ffffff;fill-opacity:1;fill-rule:nonzero;stroke:none"
           d="m 16278.5,7163.49 c -1.3,-0.15 -2.5,-0.53 -3.6,-1.06 -2.9,-1.28 -5.1,-3.63 -6.1,-6.5 -1.2,-2.87 -1.1,-5.97 0.2,-8.77 v 0 c 1.3,-2.72 3.6,-4.76 6.5,-5.82 2.9,-1.06 6.1,-0.91 8.9,0.45 2.9,1.29 5.1,3.63 6.2,6.51 1.1,2.87 1,5.97 -0.3,8.69 -1.3,2.8 -3.5,4.84 -6.4,5.9 -1.8,0.6 -3.6,0.83 -5.4,0.6 z m 3.4,-30.77 c -3.1,-0.37 -6.2,0 -9.1,1.06 -5,1.74 -8.9,5.3 -11.1,10.06 -2.1,4.76 -2.3,10.05 -0.5,14.96 1.9,4.84 5.5,8.77 10.3,10.96 4.8,2.2 10.1,2.42 15,0.69 5,-1.74 9,-5.37 11.2,-10.06 2.1,-4.76 2.3,-10.05 0.4,-14.97 -1.9,-4.91 -5.5,-8.77 -10.3,-10.96 -1.9,-0.9 -3.9,-1.44 -5.9,-1.74" /></g><g
         transform="scale(1.33022)"
         id="g642"><path
           id="path644"
           style="fill:#ffffff;fill-opacity:1;fill-rule:nonzero;stroke:none"
           d="m 16267.1,7047.33 c 2.6,-5.64 9.5,-8.12 15.4,-5.42 5.8,2.71 8.4,9.55 5.8,15.19 -2.7,5.71 -9.5,8.12 -15.4,5.41 -5.8,-2.7 -8.4,-9.47 -5.8,-15.18 z m 12.8,-14.36 c -8.2,-0.98 -16.4,3.23 -20,11.05 v 0 c -4.5,9.62 -0.1,21.2 9.7,25.78 9.9,4.52 21.5,0.3 26,-9.32 4.4,-9.7 0,-21.27 -9.8,-25.78 -1.9,-0.91 -3.8,-1.43 -5.9,-1.73" /></g><g
         transform="scale(1.35053)"
         id="g646"><path
           id="path648"
           style="fill:#ffffff;fill-opacity:1;fill-rule:nonzero;stroke:none"
           d="m 16279,6780.68 c 1.5,-3.18 5.4,-4.59 8.7,-3.03 1.6,0.74 2.9,2.07 3.6,3.7 0.6,1.63 0.5,3.33 -0.2,4.89 -0.7,1.55 -2.1,2.74 -3.7,3.33 -1.6,0.59 -3.4,0.44 -5,-0.3 -3.4,-1.48 -4.9,-5.4 -3.4,-8.59 z m 7.7,-11.47 c -6,-0.74 -12.2,2.36 -14.8,8.14 v 0 c -3.4,7.18 -0.1,15.77 7.1,19.11 3.6,1.62 7.5,1.77 11.1,0.51 3.6,-1.33 6.5,-3.92 8.1,-7.4 1.7,-3.48 1.8,-7.41 0.4,-11.03 -1.4,-3.56 -4.1,-6.45 -7.6,-8.08 -1.4,-0.66 -2.8,-1.03 -4.3,-1.25" /></g><g
         transform="scale(1.32401)"
         id="g650"><path
           id="path652"
           style="fill:#ffffff;fill-opacity:1;fill-rule:nonzero;stroke:none"
           d="m 16282.5,7286.64 c -0.7,-0.08 -1.4,-0.23 -2.1,-0.53 -1.6,-0.76 -2.8,-2.11 -3.5,-3.78 -0.6,-1.66 -0.6,-3.47 0.1,-5.06 v 0 c 1.6,-3.24 5.6,-4.68 9,-3.09 3.4,1.58 4.9,5.51 3.4,8.76 -1.3,2.64 -4.1,4.08 -6.9,3.7 z m 2.4,-21 c -6.2,-0.83 -12.5,2.42 -15.2,8.31 v 0 c -1.6,3.55 -1.7,7.55 -0.3,11.18 1.4,3.7 4.1,6.57 7.7,8.23 7.4,3.48 16.2,0.3 19.6,-7.02 3.3,-7.33 0.1,-16.01 -7.4,-19.49 -1.4,-0.6 -2.9,-1.06 -4.4,-1.21" /></g><g
         transform="scale(1.33523)"
         id="g654"><path
           id="path656"
           style="fill:#ffffff;fill-opacity:1;fill-rule:nonzero;stroke:none"
           d="m 16282.6,7046.14 c -0.6,-0.07 -1.3,-0.3 -2,-0.59 -1.6,-0.75 -2.9,-2.1 -3.5,-3.75 -0.7,-1.65 -0.6,-3.37 0.1,-4.94 v 0 c 0.7,-1.58 2.1,-2.77 3.7,-3.37 1.7,-0.6 3.5,-0.45 5.1,0.3 3.4,1.49 4.9,5.46 3.4,8.68 -1.2,2.63 -4,4.05 -6.8,3.67 z m 2.4,-20.89 c -2.3,-0.23 -4.6,0 -6.8,0.75 -3.7,1.35 -6.6,3.97 -8.2,7.49 v 0 c -1.7,3.59 -1.8,7.49 -0.4,11.15 1.4,3.6 4.1,6.52 7.6,8.17 7.5,3.37 16.1,0.23 19.4,-6.97 3.4,-7.26 0.1,-15.95 -7.2,-19.32 -1.5,-0.67 -2.9,-1.05 -4.4,-1.27" /></g><g
         transform="scale(1.31523)"
         id="g658"><path
           id="path660"
           style="fill:#ffa823;fill-opacity:1;fill-rule:nonzero;stroke:none"
           d="m 16256.6,7591.74 c 4.8,-10.5 17.3,-14.99 28,-10.04 10.7,4.94 15.4,17.33 10.6,27.78 -4.9,10.43 -17.3,14.9 -28,10 -10.7,-4.91 -15.4,-17.33 -10.6,-27.74" /></g><g
         transform="scale(1.31707)"
         id="g662"><path
           id="path664"
           style="fill:#ffa823;fill-opacity:1;fill-rule:nonzero;stroke:none"
           d="m 16268.1,7483.22 c 3.5,-7.67 12.8,-10.94 20.6,-7.37 7.8,3.57 11.3,12.76 7.7,20.43 -3.5,7.66 -12.7,10.93 -20.5,7.28 -7.9,-3.57 -11.4,-12.68 -7.8,-20.34" /></g><g
         transform="scale(1.31693)"
         id="g666"><path
           id="path668"
           style="fill:#ffa823;fill-opacity:1;fill-rule:nonzero;stroke:none"
           d="m 16273.3,7645 c 2.9,-6.44 10.7,-9.2 17.2,-6.18 6.6,3.03 9.5,10.7 6.5,17.14 -2.9,6.43 -10.7,9.2 -17.2,6.17 -6.6,-3.03 -9.5,-10.7 -6.5,-17.13" /></g><g
         transform="scale(1.31324)"
         id="g670"><path
           id="path672"
           style="fill:#ffa823;fill-opacity:1;fill-rule:nonzero;stroke:none"
           d="m 16259.4,7681.34 c 4.5,-9.75 16.2,-13.94 26.2,-9.35 10,4.59 14.4,16.22 9.9,25.98 -4.5,9.76 -16.2,13.94 -26.2,9.36 -10,-4.6 -14.4,-16.22 -9.9,-25.99" /></g><g
         transform="scale(1.31965)"
         id="g678"><path
           id="path680"
           style="fill:#3e438c;fill-opacity:1;fill-rule:nonzero;stroke:none"
           d="m 16170.4,7537.15 c -2.6,-0.31 -5.2,1.06 -6.4,3.56 -1.5,3.11 -0.1,6.82 3,8.26 l 123.3,56.81 c 3.2,1.43 6.8,0.08 8.3,-3.05 1.4,-3.11 0,-6.79 -3.1,-8.23 l -123.3,-56.82 c -0.6,-0.31 -1.2,-0.46 -1.8,-0.53" /></g><g
         transform="scale(1.31266)"
         id="g682"><path
           id="path684"
           style="fill:#3e438c;fill-opacity:1;fill-rule:nonzero;stroke:none"
           d="m 16200,7640.8 c -2.7,-0.33 -5.4,1.05 -6.5,3.59 -1.4,3.13 -0.1,6.83 3,8.27 l 93.7,43.21 c 3.2,1.44 6.9,0.07 8.4,-3.06 1.4,-3.13 0,-6.85 -3.1,-8.29 l -93.7,-43.19 c -0.6,-0.27 -1.2,-0.45 -1.8,-0.53" /></g><g
         transform="scale(1.36066)"
         id="g686"><path
           id="path688"
           style="fill:#3e438c;fill-opacity:1;fill-rule:nonzero;stroke:none"
           d="m 16087,6325.82 c -2.6,-0.3 -5.1,1.02 -6.2,3.45 -1.4,3.01 -0.1,6.61 2.9,8.01 l 206.9,95.32 c 3,1.4 6.6,0.07 8,-2.94 1.4,-3.01 0.1,-6.61 -3,-8.01 l -206.8,-95.32 c -0.6,-0.29 -1.2,-0.44 -1.8,-0.51" /></g><g
         transform="scale(1.33139)"
         id="g690"><path
           id="path692"
           style="fill:#3e438c;fill-opacity:1;fill-rule:nonzero;stroke:none"
           d="m 16208.2,7202.16 c -2.5,-0.3 -5.2,1.05 -6.4,3.53 -1.3,3.08 0,6.76 3.1,8.18 l 85.6,39.44 c 3,1.43 6.6,0.07 8.1,-3.01 1.4,-3.07 0,-6.76 -3,-8.18 l -85.6,-39.44 c -0.6,-0.3 -1.2,-0.45 -1.8,-0.52" /></g><g
         transform="scale(1.33893)"
         id="g694"><path
           id="path696"
           style="fill:#e8660f;fill-opacity:1;fill-rule:nonzero;stroke:none"
           d="m 16233.2,6704.37 c 31.1,-18 41.3,-72.22 21.6,-116.73 -2.4,-0.08 -2,-2.77 -2,-2.77 4.8,0.15 7.5,-2.46 12.6,-5 24,-18.22 34.6,-58.86 20,-89.4 -14.5,-30.62 -45.7,-45.41 -72,-27.26 -20.9,12.84 -32.7,45.18 -27.1,72.74 -7.1,-0.3 -16.9,2.09 -24.8,7.25 -20.9,12.92 -32.7,45.26 -30.3,78.12 -5.1,2.61 -10.2,5.15 -15.3,7.69 -26.4,18.15 -37.8,64.16 -24.7,105.61 -9.5,-0.38 -17,2.09 -24.8,7.32 -29.1,20.76 -40.6,66.77 -24.8,105.6 15.7,38.84 54,53.93 85.4,33.24 26.4,-18.15 38.2,-50.49 33.5,-83.5 9.4,0.37 19.3,-2.02 27.1,-7.17 20.9,-12.92 32.6,-45.26 30.2,-78.12 5.2,-2.54 10.3,-5.08 15.4,-7.62" /></g><g
         transform="scale(1.35376)"
         id="g698"><path
           id="path700"
           style="fill:#e8660f;fill-opacity:1;fill-rule:nonzero;stroke:none"
           d="m 16264.6,6968.81 c 29.9,-14.63 35.4,-64.42 12.5,-111.32 -23,-46.91 -65.7,-73.13 -95.6,-58.51 -29.8,14.63 -35.4,64.42 -12.4,111.33 22.9,46.9 65.7,73.05 95.5,58.5" /></g><path
         id="path702"
         style="fill:#8a284c;fill-opacity:1;fill-rule:nonzero;stroke:none"
         d="m 14947.8,8880.5 c -8.9,-277 -394.8,-1541.4 -738.7,-1740.7 -224.4,131.2 -372,704.2 -340,955.2 143.8,431.2 740.7,1070.3 740.7,1070.3 l 338,-284.8" /><path
         id="path704"
         style="fill:#8a284c;fill-opacity:1;fill-rule:nonzero;stroke:none"
         d="m 13005.5,9083.3 c 0,0 -323.1,-386.1 -55.6,-886 267.4,-499.9 818.8,-1303.7 1259.2,-1057.5 288.1,749.8 -919.9,1772.8 -1203.6,1943.5" /><path
         id="path706"
         style="fill:#e8660f;fill-opacity:1;fill-rule:nonzero;stroke:none"
         d="m 14879.2,9572.1 c -92.1,-39.2 -208.2,-143.7 -282.3,-400.3 -25.5,-139.5 281.3,-258.1 281.3,-258.1 l 73.3,566.6 -72.3,91.8" /><path
         id="path708"
         style="fill:#ffffff;fill-opacity:1;fill-rule:nonzero;stroke:none"
         d="m 15109.3,8541 c -13.1,0 -26,2.4 -38.5,7.3 l -389.8,150.5 c -23.3,9 -42.2,25.2 -53.3,45.6 -11.4,21 -13.4,43.8 -5.5,64.3 8.4,21.6 27.4,38.2 51.6,45.3 321.4,897.4 321.4,897.5 321.5,897.7 16.4,42.5 51.4,74.8 98.5,91 51.7,17.7 93.3,55.7 114.2,104.2 l 170.3,395.8 c -8.8,21.1 -1,41.4 4.4,55 l 5.3,13.8 c 6.5,16.7 16.6,30.2 29.6,39.1 1.2,4.7 2.8,9.8 5,15.4 3.9,10.3 9.9,23.3 20.5,32.6 8.7,7.6 19.4,11.6 30.7,11.6 6.6,0 13.2,-1.3 19.9,-3.8 l 184.1,-71.2 c 19,-7.3 30.5,-22.3 31.5,-41.1 0.7,-12.8 -3.4,-24.7 -7.7,-35.9 -1.1,-2.7 -2.4,-6 -3.9,-9.3 4.6,-15.9 2.8,-33.9 -5.3,-54.9 l -4.3,-11.2 c -1.1,-2.7 -2,-5.4 -2.9,-8.3 -3.9,-11.6 -10.8,-32.5 -31.6,-41.6 l -134.8,-403.4 c -17,-51 -11.5,-108.3 15.2,-157.2 3.7,-6.7 6.9,-13.7 9.7,-20.7 15.1,-38 15.8,-76.9 2,-112.5 -0.1,-0.3 -0.2,-0.7 -0.3,-1 l -373.1,-868.4 c 19.8,-23.5 25.9,-53.5 15.8,-79.6 -11.5,-29.8 -42.5,-49.1 -78.8,-49.1" /><path
         id="path710"
         style="fill:#3e438c;fill-opacity:1;fill-rule:nonzero;stroke:none"
         d="m 15473.8,10519.2 v 0 c -13.5,0 -26.2,-4.8 -36.6,-13.9 -12.1,-10.6 -18.6,-24.9 -23,-36.1 -1.8,-4.7 -3.3,-9.1 -4.4,-13.2 -13.2,-9.9 -23.5,-24 -30.1,-41.2 l -5.4,-13.9 c -5.2,-13.4 -13.6,-34.9 -5.7,-58 l -168.8,-392.4 c -19.9,-46.2 -59.6,-82.4 -108.9,-99.4 -49.6,-17 -86.5,-51.2 -103.9,-96.2 -0.2,-0.3 -0.2,-0.3 -320.2,-893.7 -24.7,-8.6 -44.1,-26.5 -52.9,-49.3 -8.9,-23 -6.8,-48.5 5.9,-71.8 12.2,-22.3 32.8,-39.9 58,-49.6 l 389.7,-150.6 c 13.6,-5.2 27.6,-7.8 41.8,-7.8 40.1,0 74.3,21.5 87.2,54.8 10.6,27.6 5.2,58.9 -13.9,84.2 l 88.2,205.3 282.8,658.2 c 0.1,0.4 0.3,0.8 0.5,1.3 14.6,37.7 13.8,78.9 -2.1,119 -2.9,7.4 -6.3,14.6 -10.1,21.7 -25.5,46.7 -30.8,101.4 -14.6,150 l 133.6,399.8 c 21.5,11.3 28.7,33 32.8,45.3 0.9,2.9 1.8,5.5 2.7,7.9 l 4.3,11.2 c 8.3,21.5 10.5,40.4 6.5,57.3 1,2.5 1.9,4.9 2.7,6.9 4.5,11.5 9.2,25 8.4,39.6 -1.3,22.5 -14.8,40.3 -37.2,49 l -184.2,71.1 c -7.7,3 -15.4,4.5 -23.1,4.5 z m 0,-17.9 c 5.4,0 11,-1.1 16.7,-3.3 l 184.1,-71.1 c 15.8,-6.1 25,-17.9 25.8,-33.3 0.6,-11 -3.2,-21.9 -7.2,-32.2 -1.5,-4 -3.2,-8 -5,-12 5.1,-14.5 3.7,-31.7 -4.2,-52.2 l -4.3,-11.2 c -1.1,-2.8 -2,-5.7 -3,-8.7 -4,-12.2 -10.3,-31 -30.2,-37.6 l -136.1,-407.4 c -18.3,-54.5 -11.8,-113.8 15.8,-164.3 3.4,-6.4 6.5,-13 9.2,-19.7 14.2,-35.9 14.9,-72.5 2,-106 -0.1,-0.2 -0.2,-0.4 -0.3,-0.6 l -282.7,-658.2 -92.6,-215.5 c 20.3,-21.3 27.6,-49.8 18,-74.6 -10.6,-27.3 -38.9,-43.5 -70.5,-43.5 -11.6,0 -23.6,2.2 -35.3,6.7 l -389.8,150.6 c -43.9,16.9 -68,61 -53.6,98.3 7.9,20.5 26.5,35.6 50,41.1 0,0 323,901.7 323,901.8 15.8,40.9 49.7,70.9 93.1,85.8 53.4,18.3 97.2,57.3 119.5,109.2 l 171.9,399.4 c -9.8,19 -2.6,37.5 2.9,51.7 l 5.3,13.8 c 6.3,16.3 16.5,29 29.3,36.8 1,5.3 2.8,11 5.3,17.6 3.6,9.4 8.9,21.1 18.1,29.1 7.2,6.3 15.7,9.5 24.8,9.5 v 0" /><path
         id="path712"
         style="fill:#ffa823;fill-opacity:1;fill-rule:nonzero;stroke:none"
         d="m 15294.1,10071.2 -61.3,-140.3 c -23.6,-53.8 -68.7,-96 -124.9,-113.5 -39.8,-12.4 -71.6,-38.8 -86,-76 l -326.7,-911.9 c -21.3,-1.8 -39.4,-13 -46.4,-31.1 -10.6,-27.4 8.3,-60.3 42.3,-73.4 l 389.8,-150.5 c 33.9,-13.1 70,-1.5 80.6,25.9 8.4,21.7 -1.7,46.8 -23.1,62.8 l 98,228 192.2,447.3 90.6,210.8 c 14.4,37.4 8.4,78.4 -12.8,114.4 -29.2,49.5 -36.9,108.7 -19.1,163.4 l 76.7,235 c -44.4,-6.9 -88,-46.6 -134.8,-34.7 -45.7,11.7 -94,97.1 -135.1,43.8" /><path
         id="path714"
         style="fill:#ffffff;fill-opacity:1;fill-rule:nonzero;stroke:none"
         d="m 15107.6,9720.3 c -2.9,0 -5.8,-0.5 -8.5,-1.7 -5.1,-2.2 -9,-6.3 -11,-11.4 -2,-5.2 -1.8,-10.8 0.5,-15.9 2.3,-5.1 6.6,-9.1 11.9,-11.1 5.3,-2.1 11.1,-2 16.3,0.2 5.1,2.2 9,6.3 11,11.4 4.1,10.7 -1.4,22.8 -12.4,27.1 -2.5,1 -5.2,1.4 -7.8,1.4 z m 0.7,-53.2 c -4,0 -8.1,0.7 -12,2.2 -8.2,3.2 -14.7,9.3 -18.3,17.2 -3.6,8 -3.9,16.8 -0.7,24.9 3.1,8.1 9.2,14.4 17.2,17.9 8,3.4 16.9,3.5 25.1,0.4 16.9,-6.5 25.5,-25.4 19.1,-42 v 0 c -3.2,-8.1 -9.3,-14.5 -17.3,-17.9 -4.2,-1.8 -8.6,-2.7 -13.1,-2.7" /><path
         id="path716"
         style="fill:#ffffff;fill-opacity:1;fill-rule:nonzero;stroke:none"
         d="m 14799.4,8829.9 c -4.2,0 -8.4,-0.8 -12.3,-2.5 -7.5,-3.3 -13.3,-9.2 -16.2,-16.8 -6.1,-15.6 2.1,-33.4 18.1,-39.6 16,-6.2 34,1.5 40.1,17.1 v 0 c 2.9,7.6 2.6,15.9 -0.8,23.4 -3.4,7.5 -9.6,13.3 -17.4,16.3 -3.7,1.4 -7.6,2.1 -11.5,2.1 z m 1,-72.7 c -5.2,0 -10.4,1 -15.6,3 -22,8.5 -33.1,33 -24.8,54.6 4.1,10.5 12.1,18.7 22.5,23.2 10.4,4.5 22,4.7 32.6,0.6 10.7,-4.1 19.1,-12 23.8,-22.4 4.7,-10.3 5,-21.8 1,-32.2 v 0 c -6.4,-16.6 -22.4,-26.8 -39.5,-26.8" /><path
         id="path718"
         style="fill:#ffffff;fill-opacity:1;fill-rule:nonzero;stroke:none"
         d="m 15227.6,9452 c -12.4,0 -24,-7.3 -28.6,-19.3 -6,-15.6 2.1,-33.4 18.1,-39.6 16.1,-6.2 34.1,1.5 40.1,17.2 v 0 c 6,15.6 -2.1,33.4 -18.1,39.6 -3.8,1.4 -7.7,2.1 -11.5,2.1 z m 1,-72.7 c -5.2,0 -10.5,1 -15.6,3 -22.1,8.5 -33.2,33 -24.8,54.6 8.3,21.6 33,32.3 55,23.8 22.1,-8.5 33.2,-33 24.8,-54.6 v 0 c -6.4,-16.6 -22.4,-26.8 -39.4,-26.8" /><path
         id="path720"
         style="fill:#ffffff;fill-opacity:1;fill-rule:nonzero;stroke:none"
         d="m 15133.6,8961.2 c -12.4,0 -24,-7.3 -28.6,-19.3 -6.1,-15.6 2.1,-33.4 18.1,-39.6 16,-6.2 34,1.5 40.1,17.2 6,15.6 -2.1,33.4 -18.2,39.6 -3.7,1.4 -7.6,2.1 -11.4,2.1 z m 0.9,-72.6 c -5.2,0 -10.4,0.9 -15.6,2.9 -22,8.5 -33.1,33 -24.8,54.6 8.4,21.7 33.1,32.3 55.1,23.8 22,-8.5 33.1,-33 24.8,-54.6 v 0 c -6.4,-16.6 -22.4,-26.7 -39.5,-26.7" /><path
         id="path722"
         style="fill:#ffffff;fill-opacity:1;fill-rule:nonzero;stroke:none"
         d="m 14929.1,8912.3 c -2.9,0 -5.9,-0.6 -8.7,-1.8 -5.2,-2.2 -9.3,-6.4 -11.3,-11.7 -2,-5.3 -1.9,-11.1 0.5,-16.3 2.4,-5.3 6.8,-9.3 12.2,-11.4 11.3,-4.4 23.9,1 28.1,11.9 4.2,11 -1.5,23.5 -12.7,27.8 -2.6,1 -5.4,1.5 -8.1,1.5 z m 0.7,-54.4 c -4,0 -8.1,0.8 -12.2,2.3 -8.3,3.2 -14.9,9.4 -18.6,17.5 -3.6,8.1 -3.9,17.1 -0.7,25.3 3.1,8.2 9.4,14.7 17.5,18.2 8.2,3.5 17.2,3.7 25.6,0.4 17.2,-6.6 25.9,-25.8 19.3,-42.7 v 0 c -5,-13 -17.5,-21 -30.9,-21" /><path
         id="path724"
         style="fill:#ffffff;fill-opacity:1;fill-rule:nonzero;stroke:none"
         d="m 14891.4,9143.9 c -6.8,0 -13,-4 -15.5,-10.4 -3.3,-8.5 1.1,-18.1 9.8,-21.5 8.7,-3.4 18.5,0.8 21.8,9.3 v 0 c 3.2,8.4 -1.2,18 -9.9,21.4 -2.1,0.8 -4.2,1.2 -6.2,1.2 z m 0.5,-44.7 c -3.4,0 -6.9,0.7 -10.4,2 -14.6,5.6 -22,22 -16.5,36.4 5.6,14.5 22.1,21.6 36.8,15.9 14.7,-5.6 22.1,-22 16.5,-36.4 v 0 c -4.3,-11.1 -15,-17.9 -26.4,-17.9" /><path
         id="path726"
         style="fill:#ffffff;fill-opacity:1;fill-rule:nonzero;stroke:none"
         d="m 14944.6,9191.1 c -6.7,0 -13,-3.9 -15.5,-10.4 -3.3,-8.5 1.1,-18.1 9.8,-21.5 8.8,-3.3 18.5,0.8 21.8,9.3 3.2,8.5 -1.2,18.1 -9.9,21.5 -2,0.7 -4.1,1.1 -6.2,1.1 z m 0.6,-44.6 c -3.5,0 -7,0.6 -10.4,1.9 -14.7,5.7 -22.1,22 -16.5,36.5 5.5,14.4 22,21.5 36.7,15.9 14.7,-5.7 22.1,-22.1 16.5,-36.5 -4.3,-11.1 -15,-17.8 -26.3,-17.8" /><path
         id="path728"
         style="fill:#ffffff;fill-opacity:1;fill-rule:nonzero;stroke:none"
         d="m 15406.3,9653 c -2.3,0 -4.5,-0.5 -6.7,-1.4 -4.1,-1.7 -7.2,-4.9 -8.8,-9 -3.2,-8.5 1.2,-18.1 9.9,-21.5 8.7,-3.3 18.5,0.8 21.7,9.3 3.3,8.4 -1.1,18.1 -9.8,21.4 -2.1,0.8 -4.2,1.2 -6.3,1.2 z m 0.6,-44.7 c -3.4,0 -6.9,0.7 -10.4,2 -14.6,5.7 -22.1,22 -16.5,36.5 2.7,7 8.1,12.5 15,15.5 7,3 14.7,3.1 21.8,0.4 14.6,-5.7 22,-22.1 16.5,-36.5 -4.3,-11.1 -15,-17.9 -26.4,-17.9" /><path
         id="path730"
         style="fill:#ffffff;fill-opacity:1;fill-rule:nonzero;stroke:none"
         d="m 15283.9,9557.6 c -2.3,0 -4.5,-0.4 -6.7,-1.4 -4.1,-1.7 -7.2,-4.9 -8.8,-9 -1.5,-4.1 -1.4,-8.6 0.4,-12.6 1.9,-4.1 5.3,-7.2 9.5,-8.9 4.2,-1.6 8.8,-1.5 13,0.2 4.1,1.8 7.2,5 8.7,9.1 v 0 c 3.3,8.4 -1.1,18.1 -9.8,21.4 -2.1,0.8 -4.2,1.2 -6.3,1.2 z m 0.7,-44.7 c -3.6,0 -7.1,0.7 -10.5,2 -7.1,2.7 -12.7,8 -15.8,14.9 -3.2,6.9 -3.4,14.5 -0.7,21.6 2.7,7 8.1,12.5 15,15.5 7,3 14.7,3.1 21.8,0.4 14.6,-5.7 22,-22.1 16.5,-36.5 v 0 c -2.7,-7 -8.1,-12.5 -15,-15.5 -3.7,-1.6 -7.5,-2.4 -11.3,-2.4" /><path
         id="path732"
         style="fill:#ffffff;fill-opacity:1;fill-rule:nonzero;stroke:none"
         d="m 14928.3,9287.7 c -1.4,0 -2.7,-0.3 -3.9,-0.8 -2.4,-1 -4.1,-2.9 -5,-5.2 -1.9,-4.9 0.6,-10.4 5.7,-12.4 5,-1.9 10.7,0.5 12.5,5.3 1.9,4.9 -0.6,10.5 -5.7,12.4 -1.2,0.5 -2.4,0.7 -3.6,0.7 z m 0.4,-30.7 c -2.6,0 -5.2,0.5 -7.8,1.5 -11,4.2 -16.6,16.5 -12.4,27.4 2.1,5.3 6.1,9.4 11.3,11.6 5.2,2.3 11,2.4 16.3,0.3 11,-4.2 16.6,-16.5 12.4,-27.4 v 0 c -3.2,-8.3 -11.3,-13.4 -19.8,-13.4" /><path
         id="path734"
         style="fill:#ffffff;fill-opacity:1;fill-rule:nonzero;stroke:none"
         d="m 15368.4,9838.1 c -3.9,0 -7.5,-2.3 -8.9,-6 -1.9,-4.8 0.7,-10.4 5.7,-12.3 5,-2 10.7,0.4 12.6,5.3 0.9,2.3 0.8,4.9 -0.3,7.2 -1.1,2.4 -3,4.2 -5.5,5.2 -1.2,0.4 -2.4,0.6 -3.6,0.6 z m 0.4,-30.6 c -2.6,0 -5.2,0.4 -7.8,1.4 -11,4.3 -16.6,16.6 -12.4,27.4 4.2,10.9 16.6,16.2 27.6,12 5.3,-2.1 9.5,-6 11.9,-11.2 2.3,-5.2 2.5,-10.9 0.5,-16.2 -3.2,-8.3 -11.3,-13.4 -19.8,-13.4" /><path
         id="path736"
         style="fill:#ffffff;fill-opacity:1;fill-rule:nonzero;stroke:none"
         d="m 15185.8,9564.7 c -1.3,0 -2.6,-0.3 -3.9,-0.8 -2.3,-1 -4.1,-2.9 -5,-5.2 -1.9,-4.9 0.7,-10.4 5.7,-12.4 5.1,-1.9 10.7,0.4 12.6,5.3 0.9,2.4 0.8,4.9 -0.3,7.3 -1,2.3 -3,4.1 -5.5,5.1 -1.1,0.4 -2.4,0.7 -3.6,0.7 z m 0.4,-30.7 c -2.6,0 -5.2,0.5 -7.8,1.5 -11,4.2 -16.5,16.5 -12.3,27.4 2,5.2 6,9.4 11.2,11.6 5.2,2.3 11,2.4 16.3,0.3 5.3,-2 9.6,-6 11.9,-11.1 2.4,-5.2 2.5,-11 0.5,-16.3 v 0 c -3.2,-8.3 -11.2,-13.4 -19.8,-13.4" /><path
         id="path738"
         style="fill:#ffa823;fill-opacity:1;fill-rule:nonzero;stroke:none"
         d="m 15538.6,10217.7 c -6,-15.4 -23.5,-22.9 -39.2,-16.9 -15.7,6.1 -23.6,23.5 -17.7,38.9 5.9,15.4 23.5,22.9 39.2,16.8 15.7,-6 23.6,-23.4 17.7,-38.8" /><path
         id="path740"
         style="fill:#ffa823;fill-opacity:1;fill-rule:nonzero;stroke:none"
         d="m 15498.5,10074.1 c -4.4,-11.3 -17.3,-16.9 -28.8,-12.4 -11.6,4.4 -17.4,17.2 -13,28.5 4.3,11.3 17.2,16.9 28.8,12.4 11.6,-4.4 17.4,-17.2 13,-28.5" /><path
         id="path742"
         style="fill:#ffa823;fill-opacity:1;fill-rule:nonzero;stroke:none"
         d="m 15685.6,10399.1 c -4.4,-11.3 -17.3,-16.8 -28.9,-12.4 -11.5,4.5 -17.3,17.3 -13,28.6 4.4,11.3 17.3,16.8 28.9,12.4 11.5,-4.5 17.3,-17.3 13,-28.6" /><path
         id="path744"
         style="fill:#ffa823;fill-opacity:1;fill-rule:nonzero;stroke:none"
         d="m 15479,10304.8 c -3.7,-9.5 -14.5,-14.2 -24.3,-10.5 -9.7,3.8 -14.5,14.5 -10.9,24 3.7,9.5 14.5,14.2 24.2,10.4 9.7,-3.7 14.6,-14.5 11,-23.9" /><path
         id="path746"
         style="fill:#ffa823;fill-opacity:1;fill-rule:nonzero;stroke:none"
         d="m 15562.8,10331.4 c -5.5,-14.3 -21.9,-21.4 -36.6,-15.7 -14.7,5.7 -22.1,21.9 -16.5,36.3 5.5,14.3 21.9,21.4 36.6,15.7 14.7,-5.6 22.1,-21.9 16.5,-36.3" /><path
         id="path750"
         style="fill:#3e438c;fill-opacity:1;fill-rule:nonzero;stroke:none"
         d="m 15587.5,10178.7 c -1.1,0 -2.2,0.2 -3.2,0.6 l -182.5,70.5 c -4.6,1.7 -6.9,6.9 -5.1,11.5 1.8,4.6 7,6.9 11.6,5.1 l 182.4,-70.4 c 4.6,-1.8 6.9,-7 5.1,-11.6 -1.3,-3.5 -4.7,-5.7 -8.3,-5.7" /><path
         id="path752"
         style="fill:#3e438c;fill-opacity:1;fill-rule:nonzero;stroke:none"
         d="m 15662.7,10274.6 c -1.1,0 -2.2,0.2 -3.2,0.6 l -138,53.3 c -4.6,1.8 -6.9,6.9 -5.1,11.6 1.8,4.6 7,6.9 11.6,5.1 l 137.9,-53.3 c 4.6,-1.8 6.9,-7 5.2,-11.6 -1.4,-3.5 -4.8,-5.7 -8.4,-5.7" /><path
         id="path754"
         style="fill:#3e438c;fill-opacity:1;fill-rule:nonzero;stroke:none"
         d="m 15081.1,8681.9 c -1.1,0 -2.2,0.2 -3.3,0.6 l -315.6,121.9 c -4.6,1.7 -6.9,6.9 -5.1,11.5 1.8,4.6 7,6.9 11.6,5.1 l 315.6,-121.8 c 4.6,-1.8 6.9,-7 5.1,-11.6 -1.4,-3.6 -4.7,-5.7 -8.3,-5.7" /><path
         id="path756"
         style="fill:#3e438c;fill-opacity:1;fill-rule:nonzero;stroke:none"
         d="m 15350.4,9772.6 c -1,0 -2.1,0.2 -3.2,0.6 l -127.7,49.4 c -4.6,1.7 -6.9,6.9 -5.1,11.5 1.8,4.6 6.9,6.9 11.6,5.1 l 127.7,-49.3 c 4.6,-1.8 6.9,-6.9 5.1,-11.6 -1.4,-3.5 -4.8,-5.7 -8.4,-5.7" /><path
         id="path758"
         style="fill:#e8660f;fill-opacity:1;fill-rule:nonzero;stroke:none"
         d="m 15222.5,9094.9 c -43.6,-29.1 -53.5,-109.2 -20.7,-172.2 3.5,0.1 3.2,-3.9 3.2,-3.9 -6.9,-0.2 -10.7,-4.3 -17.9,-8.5 -33.4,-28.8 -45.1,-89 -21,-132.3 24.1,-43.2 70.9,-62 107.6,-33 29.3,20.7 43.5,69 32.9,108.6 10.3,0.3 24.5,4.6 35.5,12.9 29.2,20.7 43.4,69 36.9,116.8 7.2,4.1 14.4,8.3 21.7,12.5 36.8,28.9 49.1,97.1 26.3,156.4 13.8,0.3 24.5,4.6 35.5,12.9 40.5,33 52.9,101.2 26.3,156.4 -26.6,55.2 -83.7,73.6 -127.7,40.5 -36.8,-28.9 -51,-77.1 -41,-124.8 -13.8,-0.4 -28,-4.7 -38.9,-13 -29.3,-20.7 -43.5,-69 -37,-116.7 -7.2,-4.2 -14.4,-8.4 -21.7,-12.6" /><path
         id="path760"
         style="fill:#e8660f;fill-opacity:1;fill-rule:nonzero;stroke:none"
         d="m 14882.4,9573.7 c -42.6,-24.3 -46.1,-98.3 -7.9,-165.4 38.2,-67 103.7,-101.6 146.3,-77.3 42.7,24.3 46.2,98.3 8,165.3 -38.2,67.1 -103.8,101.7 -146.4,77.4" /><path
         id="path762"
         style="fill:#e62552;fill-opacity:1;fill-rule:nonzero;stroke:none"
         d="m 11040.5,9083.3 c 0,0 476.8,73.3 678.7,42.4 371.4,-312.6 708.7,0 708.7,0 226.6,7.6 578.9,-42.4 578.9,-42.4 0,-621.1 316,-3113.9 316,-3113.9 0,0 -291,-351.6 -1248.1,-351.6 -580.3,3.7 -1192.6,145.1 -1192.6,145.1 0,0 158.4,2701 158.4,3320.4" /></g></g></svg>
